<?xml version="1.0" standalone="no"?>
<!-- Generator: Paintmaps.com , Online SVG vector map maker -->
<svg xmlns="http://www.w3.org/2000/svg" version="1.1" baseProfile="full" width="800" height="533" style="background-color:false">
<path d="M 399.4182 410.5638 L 396.8974 408.7023 L 397.4016 407.6163 L 395.2685 406.1685 L 395.7727 405.186 L 393.0967 403.7381 L 391.0025 400.3253 L 388.9082 397.688 L 382.4703 394.0166 L 380.4536 392.2068 L 380.3761 390.6038 L 379.3289 387.8632 L 375.6834 384.7606 L 376.4978 384.2435 L 375.567 382.3819 L 373.3177 380.6238 L 372.8523 381.8131 L 372.3869 379.0208 L 372.6971 375.8665 L 370.0987 375.0391 L 370.7968 372.557 L 372.2705 372.4019 L 373.0462 373.9532 L 374.8302 366.507 L 373.9382 362.2667 L 373.3177 361.4394 L 375.7222 358.2851 L 378.9411 355.5962 L 380.1046 353.9415 L 381.9274 354.7171 L 385.5729 354.3551 L 387.0854 353.5795 L 386.9691 354.9239 L 385.3014 356.5269 L 385.5341 359.009 L 384.4094 359.9915 L 383.3623 362.9907 L 386.2322 363.4044 L 390.4595 364.8005 L 389.0246 367.4895 L 389.7614 369.6096 L 388.7143 371.3677 L 389.6063 374.8323 L 393.4458 376.3318 L 396.5483 378.9691 L 398.4487 379.2793 L 399.7285 380.5204 L 399.8449 383.2093 L 398.2548 386.467 L 400.1163 388.7939 L 400 391.276 L 401.4349 391.3277 L 403.4128 390.0867 L 404.5763 392.5688 L 406.244 394.1718 L 406.6706 396.2919 L 407.9892 398.4637 L 407.2135 402.4971 L 401.9779 405.9616 L 399.4182 410.5638 Z" fill="#000" fill-opacity="1" stroke="#000" stroke-width="0" paint-order="fill" stroke-opacity="1" stroke-dasharray="" stroke-linecap="butt" stroke-linejoin="miter" stroke-miterlimit="10" transform="matrix(1.100000023841858,0,0,1.100000023841858,-40.00001525878906,-26.649986267089844)" clip-path="none" style="filter: url(#f1)"/>
<path d="M 465.232 315.4176 L 464.6891 318.0548 L 461.7028 323.5877 L 460.4618 329.0173 L 461.4314 331.8613 L 465.1545 334.0848 L 466.1628 337.3943 L 469.2654 339.1007 L 471.3597 344.4268 L 470.8167 347.0123 L 472.0965 349.5461 L 477.5261 351.7696 L 480.0469 351.7696 L 483.8864 353.5795 L 487.2993 354.562 L 490.4406 356.6821 L 498.4298 358.1817 L 501.959 357.6646 L 500.7568 356.2684 L 501.2997 355.4927 L 505.7597 355.9581 L 505.0228 359.371 L 505.1392 361.9565 L 504.1696 363.7146 L 500.6404 367.8514 L 498.0032 373.5395 L 494.9394 374.3669 L 494.125 378.7105 L 495.017 380.6755 L 494.4352 383.7264 L 493.0391 387.9666 L 491.0224 388.6905 L 490.5958 391.8965 L 487.6871 394.1718 L 489.0832 395.9299 L 490.4019 396.2402 L 490.6345 400.1184 L 489.9365 401.4112 L 489.9365 403.9449 L 490.6733 406.5304 L 490.3631 408.9091 L 489.4323 409.4262 L 486.1358 406.427 L 486.3297 404.3586 L 484.9723 403.221 L 483.7313 404.1001 L 478.8447 401.8765 L 478.7671 403.0659 L 475.3155 403.9449 L 471.0106 402.2385 L 471.1658 399.8082 L 472.2517 398.1017 L 470.7392 397.5846 L 468.7613 394.2235 L 467.5978 393.4478 L 467.4426 396.3436 L 466.4731 398.3086 L 464.2237 396.447 L 460.5394 397.4295 L 458.6003 396.7056 L 457.2429 394.8957 L 457.2429 393.3961 L 456.8938 390.914 L 457.4756 389.7764 L 459.7637 388.1217 L 461.9743 387.5012 L 465.775 382.899 L 466.4731 380.4686 L 466.5119 376.4353 L 464.7279 372.8673 L 462.3621 370.7472 L 460.074 370.2301 L 458.8717 368.4202 L 454.9547 367.5412 L 450.5335 364.542 L 446.9655 363.6112 L 443.9405 365.0074 L 441.1869 364.0766 L 439.3642 362.577 L 436.9597 359.1642 L 433.5468 356.3718 L 433.8958 355.6996 L 431.1035 346.7021 L 429.2032 345.5644 L 427.0701 342.6687 L 426.9926 341.1691 L 424.782 337.3943 L 427.8846 337.2391 L 431.6465 335.9981 L 432.6548 334.1366 L 432.9263 331.2408 L 435.1369 327.9831 L 435.292 324.6219 L 431.1811 322.9672 L 434.2837 320.1749 L 436.8433 315.3659 L 443.669 314.7453 L 445.2591 314.2799 L 446.888 312.5735 L 448.129 315.1073 L 450.6886 316.5552 L 453.2095 316.2449 L 455.2262 317.7962 L 456.9714 317.8996 L 460.0352 315.7795 L 462.8275 314.9522 L 464.8442 315.2624 L 465.232 315.4176 L 465.232 315.4176 Z" fill="#000" fill-opacity="1" stroke="#000" stroke-width="0" paint-order="fill" stroke-opacity="1" stroke-dasharray="" stroke-linecap="butt" stroke-linejoin="miter" stroke-miterlimit="10" transform="matrix(1.100000023841858,0,0,1.100000023841858,-40.00001525878906,-26.649986267089844)" clip-path="none" style="filter: url(#f1)"/>
<path d="M 465.232 315.4176 L 462.8275 314.9522 L 460.0352 315.7795 L 456.9714 317.8996 L 455.2262 317.7962 L 453.2095 316.2449 L 450.6886 316.5552 L 448.129 315.1073 L 446.888 312.5735 L 445.2591 314.2799 L 443.669 314.7453 L 436.8433 315.3659 L 435.0205 311.8496 L 435.5247 307.7645 L 433.9734 304.7136 L 432.4221 303.0072 L 429.591 302.1798 L 426.6823 306.3683 L 415.3966 308.8504 L 413.3799 307.4542 L 412.6431 304.1448 L 414.8149 302.5935 L 417.5684 299.8529 L 420.2444 298.5084 L 419.4688 297.0088 L 417.4133 296.0263 L 415.862 291.7861 L 416.0947 287.701 L 414.3495 283.4091 L 414.2719 280.927 L 412.1001 276.3249 L 408.377 270.8953 L 407.9892 269.2923 L 408.8812 266.3448 L 408.9199 262.8803 L 410.0834 260.5016 L 410.3937 257.4507 L 412.6043 255.6409 L 412.5267 253.7276 L 411.5959 252.7451 L 408.9975 252.4349 L 406.1664 253.3657 L 400.7756 257.4507 L 398.0609 261.2256 L 394.8807 266.5517 L 391.7005 267.7927 L 388.947 270.1197 L 386.8915 270.5851 L 383.9828 266.9137 L 383.4787 263.3457 L 381.5008 260.9153 L 381.1905 256.8819 L 379.4841 253.0037 L 381.7722 251.9178 L 387.0466 247.1088 L 388.2877 247.0053 L 391.8945 249.1772 L 392.0108 247.9878 L 390.0717 244.7818 L 390.3819 243.4891 L 392.5538 242.7134 L 393.4458 240.7484 L 397.4791 240.7484 L 403.568 238.1112 L 408.726 237.2322 L 411.2081 235.9911 L 411.9062 234.6467 L 411.7123 228.1829 L 410.7039 223.7359 L 411.1305 222.4948 L 412.7206 222.4431 L 414.8924 223.8393 L 419.3136 224.5632 L 423.0368 226.0111 L 424.9371 227.2004 L 424.1227 227.5107 L 428.2336 231.6475 L 431.1035 233.2505 L 431.0647 235.0603 L 429.2032 235.2155 L 429.5522 237.077 L 432.0731 238.4732 L 433.5856 241.369 L 433.4692 242.6617 L 435.2532 246.7985 L 439.1315 249.3323 L 439.2478 252.0729 L 441.0706 254.0379 L 443.2424 254.9687 L 445.6081 259.002 L 447.7024 261.1739 L 448.0902 263.5008 L 446.0347 266.8102 L 445.0652 267.1205 L 442.1953 270.947 L 451.3479 271.0504 L 460.0352 272.8086 L 462.8275 274.2048 L 463.8359 277.1522 L 463.7195 279.3757 L 465.3096 280.4099 L 466.0853 282.3232 L 465.232 285.0121 L 483.5374 285.3224 L 487.9973 283.8228 L 488.8118 282.3232 L 492.1471 281.0305 L 495.4048 277.4108 L 499.8648 274.3599 L 502.0366 272.3432 L 503.4715 272.1881 L 502.2305 274.7736 L 501.1446 275.2907 L 502.9286 279.0655 L 500.9507 281.0305 L 500.6792 284.3399 L 496.5295 287.701 L 495.3272 294.0097 L 492.3798 297.6811 L 487.4932 301.3008 L 484.1967 302.5935 L 474.0357 307.7128 L 470.1186 307.9713 L 466.7446 306.5752 L 466.124 307.5059 L 467.4039 310.1431 L 465.6974 313.1423 L 465.232 315.4176 Z" fill="#000" fill-opacity="1" stroke="#000" stroke-width="0" paint-order="fill" stroke-opacity="1" stroke-dasharray="" stroke-linecap="butt" stroke-linejoin="miter" stroke-miterlimit="10" transform="matrix(1.100000023841858,0,0,1.100000023841858,-40.00001525878906,-26.649986267089844)" clip-path="none" style="filter: url(#f1)"/>
<path d="M 465.6974 313.1423 L 467.4039 310.1431 L 466.124 307.5059 L 466.7446 306.5752 L 470.1186 307.9713 L 474.0357 307.7128 L 484.1967 302.5935 L 487.4932 301.3008 L 492.3798 297.6811 L 495.3272 294.0097 L 496.5295 287.701 L 500.6792 284.3399 L 500.2138 308.9021 L 502.6571 307.2991 L 504.8289 309.6261 L 508.1642 310.35 L 510.2585 309.8329 L 515.8044 307.0923 L 519.1784 307.3508 L 521.1563 308.2816 L 524.4141 308.0748 L 543.8053 344.7371 L 541.2844 347.426 L 542.3703 348.5119 L 541.6335 349.7529 L 539.7719 350.2183 L 536.8632 353.1141 L 536.902 356.9406 L 522.4749 363.7663 L 521.5054 363.7146 L 506.5353 355.7513 L 505.7597 355.9581 L 501.2997 355.4927 L 500.7568 356.2684 L 501.959 357.6646 L 498.4298 358.1817 L 490.4406 356.6821 L 487.2993 354.562 L 483.8864 353.5795 L 480.0469 351.7696 L 477.5261 351.7696 L 472.0965 349.5461 L 470.8167 347.0123 L 471.3597 344.4268 L 469.2654 339.1007 L 466.1628 337.3943 L 465.1545 334.0848 L 461.4314 331.8613 L 460.4618 329.0173 L 461.7028 323.5877 L 464.6891 318.0548 L 465.232 315.4176 L 465.232 315.4176 L 465.6974 313.1423 Z" fill="#000" fill-opacity="1" stroke="#000" stroke-width="0" paint-order="fill" stroke-opacity="1" stroke-dasharray="" stroke-linecap="butt" stroke-linejoin="miter" stroke-miterlimit="10" transform="matrix(1.100000023841858,0,0,1.100000023841858,-40.00001525878906,-26.649986267089844)" clip-path="none" style="filter: url(#f1)"/>
<path d="M 339.034 214.7383 L 338.2971 213.9627 L 339.1116 206.7233 L 340.6629 205.0686 L 343.0674 206.0511 L 345.7821 206.0511 L 348.1479 205.0169 L 348.9235 202.9485 L 351.6771 200.3113 L 352.22 198.8634 L 350.1645 194.4681 L 347.7988 193.2787 L 343.9206 192.2962 L 342.3693 190.7967 L 339.5769 185.2637 L 339.7709 179.1619 L 341.2834 177.4038 L 343.3776 179.1619 L 347.5661 180.9718 L 350.3972 183.609 L 351.9485 184.2812 L 356.7188 184.488 L 359.7826 186.2462 L 362.0708 191.1586 L 363.4669 192.348 L 366.7634 192.2962 L 370.0987 189.9176 L 371.65 189.8142 L 375.2568 193.589 L 376.9632 194.4163 L 382.4315 194.1578 L 386.5037 195.0886 L 388.5979 196.0711 L 390.188 197.6741 L 391.1188 199.9493 L 390.4207 206.5682 L 389.7614 210.1362 L 387.3957 213.4456 L 386.1547 213.0836 L 384.1767 210.6016 L 380.9966 209.102 L 378.6309 209.8259 L 376.7693 213.3939 L 376.3815 215.0486 L 376.9632 217.3238 L 376.653 222.4431 L 377.5837 226.4765 L 383.0908 238.3181 L 383.8665 240.6967 L 383.4787 243.0754 L 381.3068 245.7643 L 379.9495 251.1938 L 378.2818 252.5383 L 377.0796 254.6067 L 374.9465 254.193 L 374.2484 251.349 L 371.4561 246.7985 L 370.758 247.5224 L 370.6029 250.7802 L 368.4699 251.9178 L 361.2951 250.5216 L 359.3948 250.9353 L 358.8518 249.9011 L 358.1149 243.7476 L 355.4777 241.2655 L 350.7851 239.7142 L 347.8764 239.6108 L 346.868 237.9561 L 346.9456 235.7326 L 345.3167 232.5783 L 345.7821 228.1312 L 342.4856 224.2013 L 341.6712 221.4606 L 341.8651 218.8234 L 340.4302 217.7375 L 339.034 214.7383 Z" fill="#000" fill-opacity="1" stroke="#000" stroke-width="0" paint-order="fill" stroke-opacity="1" stroke-dasharray="" stroke-linecap="butt" stroke-linejoin="miter" stroke-miterlimit="10" transform="matrix(1.100000023841858,0,0,1.100000023841858,-40.00001525878906,-26.649986267089844)" clip-path="none" style="filter: url(#f1)"/>
<path d="M 341.2834 177.4038 L 339.7709 179.1619 L 339.5769 185.2637 L 342.3693 190.7967 L 343.9206 192.2962 L 347.7988 193.2787 L 350.1645 194.4681 L 352.22 198.8634 L 351.6771 200.3113 L 348.9235 202.9485 L 348.1479 205.0169 L 345.7821 206.0511 L 343.0674 206.0511 L 340.6629 205.0686 L 339.1116 206.7233 L 338.2971 213.9627 L 339.034 214.7383 L 336.0477 214.5832 L 333.3718 215.2037 L 332.6737 213.4973 L 332.5573 208.8951 L 330.3855 204.2929 L 329.1057 202.4314 L 325.1111 199.8976 L 322.7841 195.2437 L 318.8671 193.1753 L 315.3379 187.9526 L 316.5014 184.1778 L 319.0998 180.2478 L 319.0998 177.1969 L 318.0915 171.9742 L 319.5264 168.5614 L 319.5652 166.131 L 318.5956 164.4763 L 317.8976 161.4771 L 316.6953 158.9951 L 318.3242 155.4788 L 317.277 152.9967 L 319.6816 147.7223 L 319.9142 145.2919 L 321.5043 144.206 L 322.0861 141.4137 L 323.4047 140.0692 L 323.1332 138.156 L 324.5681 133.5021 L 324.5681 131.6405 L 326.7012 131.4337 L 327.7095 133.9157 L 329.1445 133.1918 L 328.3688 130.5546 L 331.898 126.5729 L 334.225 123.4186 L 337.25 121.4019 L 338.4523 128.7965 L 340.5077 133.2952 L 341.5548 140.3795 L 343.0286 143.0167 L 343.6491 145.809 L 343.0674 147.6189 L 342.6408 155.4788 L 340.6629 159.5122 L 338.9176 161.6323 L 338.1032 165.0451 L 339.6545 173.7841 L 341.2834 177.4038 Z" fill="#000" fill-opacity="1" stroke="#000" stroke-width="0" paint-order="fill" stroke-opacity="1" stroke-dasharray="" stroke-linecap="butt" stroke-linejoin="miter" stroke-miterlimit="10" transform="matrix(1.100000023841858,0,0,1.100000023841858,-40.00001525878906,-26.649986267089844)" clip-path="none" style="filter: url(#f1)"/>
<path d="M 379.9495 251.1938 L 381.3068 245.7643 L 383.4787 243.0754 L 383.8665 240.6967 L 383.0908 238.3181 L 377.5837 226.4765 L 376.653 222.4431 L 376.9632 217.3238 L 376.3815 215.0486 L 376.7693 213.3939 L 378.6309 209.8259 L 380.9966 209.102 L 384.1767 210.6016 L 386.1547 213.0836 L 387.3957 213.4456 L 389.7614 210.1362 L 390.4207 206.5682 L 391.1188 199.9493 L 390.188 197.6741 L 388.5979 196.0711 L 386.5037 195.0886 L 382.4315 194.1578 L 376.9632 194.4163 L 375.2568 193.589 L 371.65 189.8142 L 370.0987 189.9176 L 366.7634 192.2962 L 363.4669 192.348 L 362.0708 191.1586 L 359.7826 186.2462 L 356.7188 184.488 L 351.9485 184.2812 L 350.3972 183.609 L 347.5661 180.9718 L 343.3776 179.1619 L 341.2834 177.4038 L 339.6545 173.7841 L 338.1032 165.0451 L 338.9176 161.6323 L 340.6629 159.5122 L 342.6408 155.4788 L 343.0674 147.6189 L 343.6491 145.809 L 343.0286 143.0167 L 341.5548 140.3795 L 340.5077 133.2952 L 338.4523 128.7965 L 337.25 121.4019 L 363.1567 112.1976 L 364.5141 111.4219 L 376.8081 101.9073 L 389.0246 87.3768 L 392.3986 73.9839 L 393.8724 75.1733 L 396.6647 75.0699 L 395.0746 69.8989 L 396.0442 67.0031 L 395.6564 64.7279 L 391.9332 61.9355 L 390.7698 58.3158 L 387.6672 56.7645 L 387.2406 55.1615 L 391.4291 56.2992 L 394.6092 55.7303 L 396.8198 53.3 L 398.6426 53.6102 L 400.7369 55.6786 L 404.8478 57.6953 L 405.9725 56.506 L 407.5626 58.9881 L 406.7481 59.8154 L 410.161 60.4359 L 415.4354 65.8655 L 416.5601 68.2441 L 416.2498 69.6403 L 417.995 70.7779 L 417.0255 72.4844 L 419.43 75.4318 L 422.1835 76.2075 L 423.4634 75.7938 L 424.5493 77.8622 L 426.7987 78.3793 L 427.6906 80.1891 L 429.5134 80.9648 L 430.5993 79.9823 L 433.3141 81.6887 L 435.0205 84.3776 L 434.5551 85.0499 L 436.533 86.8597 L 436.8045 89.0315 L 435.7574 91.4102 L 440.1398 94.1508 L 442.2728 93.0132 L 443.669 94.3577 L 444.0956 98.0291 L 445.4142 100.6663 L 443.3975 103.924 L 444.2895 105.7855 L 446.0347 106.9749 L 446.6553 105.9407 L 448.6332 107.2851 L 449.2537 108.733 L 452.4726 107.8022 L 454.4505 108.7847 L 456.157 106.768 L 458.0185 107.9057 L 460.8109 108.4228 L 461.858 109.4052 L 467.2875 108.4745 L 468.9552 106.7163 L 471.7863 106.6646 L 474.695 103.4586 L 477.0607 102.2176 L 481.6758 104.2342 L 482.6066 106.4061 L 483.5761 105.0099 L 484.3518 107.8022 L 486.7951 106.8197 L 489.0057 107.0266 L 490.7897 105.165 L 493.6208 105.1133 L 494.2801 103.7171 L 496.9949 104.4411 L 499.0116 106.3026 L 500.8731 106.768 L 502.2305 109.6121 L 503.8206 108.5779 L 506.6129 110.5946 L 508.9399 110.4911 L 508.8623 112.1976 L 510.336 111.6288 L 511.7322 113.6972 L 513.904 114.6797 L 514.9899 113.904 L 515.9983 115.8173 L 500.0587 140.5863 L 504.4411 142.5513 L 506.8844 142.6547 L 508.2806 141.5171 L 509.8319 141.7756 L 512.0037 143.9992 L 512.6242 146.4295 L 515.5717 148.2911 L 517.821 151.9625 L 516.3861 153.6689 L 514.7184 152.0142 L 513.3223 152.0659 L 512.1976 153.7724 L 509.8706 151.8074 L 509.7931 149.739 L 507.0395 148.8599 L 503.4328 150.2044 L 502.3856 148.4462 L 500.5241 149.6873 L 497.7317 149.8424 L 497.499 151.1869 L 494.5904 154.6514 L 489.9365 154.0826 L 488.9281 155.1685 L 487.2217 154.4446 L 485.4765 156.2544 L 482.18 155.9959 L 481.7534 156.8749 L 478.4956 157.3403 L 476.0136 156.7715 L 473.3376 157.4438 L 471.2433 159.0468 L 469.1491 159.5639 L 467.8693 161.322 L 464.9994 163.1318 L 461.6253 164.166 L 461.4702 165.4588 L 456.3121 169.1819 L 455.6916 170.1644 L 453.5585 169.9576 L 449.6027 171.7157 L 450.1069 174.9217 L 448.3229 179.4722 L 448.5944 181.644 L 447.6248 185.1086 L 444.4447 189.0385 L 442.2341 193.589 L 443.5527 196.5365 L 444.561 201.966 L 443.0097 204.4998 L 439.0539 205.3789 L 431.8404 210.6016 L 429.9788 212.7734 L 428.8929 217.3238 L 431.1423 222.0294 L 426.8374 223.5807 L 424.9759 223.2188 L 425.8291 225.3906 L 424.9371 227.2004 L 423.0368 226.0111 L 419.3136 224.5632 L 414.8924 223.8393 L 412.7206 222.4431 L 411.1305 222.4948 L 410.7039 223.7359 L 411.7123 228.1829 L 411.9062 234.6467 L 411.2081 235.9911 L 408.726 237.2322 L 403.568 238.1112 L 397.4791 240.7484 L 393.4458 240.7484 L 392.5538 242.7134 L 390.3819 243.4891 L 390.0717 244.7818 L 392.0108 247.9878 L 391.8945 249.1772 L 388.2877 247.0053 L 387.0466 247.1088 L 381.7722 251.9178 L 379.4841 253.0037 L 379.9495 251.1938 Z" fill="#000" fill-opacity="1" stroke="#000" stroke-width="0" paint-order="fill" stroke-opacity="1" stroke-dasharray="" stroke-linecap="butt" stroke-linejoin="miter" stroke-miterlimit="10" transform="matrix(1.100000023841858,0,0,1.100000023841858,-40.00001525878906,-26.649986267089844)" clip-path="none" style="filter: url(#f1)"/>
<path d="M 407.2135 402.4971 L 407.9892 398.4637 L 406.6706 396.2919 L 406.244 394.1718 L 404.5763 392.5688 L 403.4128 390.0867 L 401.4349 391.3277 L 400 391.276 L 400.1163 388.7939 L 398.2548 386.467 L 399.8449 383.2093 L 399.7285 380.5204 L 401.4349 379.2793 L 406.7093 378.6071 L 407.1747 377.6763 L 407.2523 373.7464 L 405.9337 370.3335 L 405.8949 367.8514 L 402.9087 364.3351 L 403.568 362.1633 L 405.7786 361.2843 L 407.0196 362.4736 L 409.269 363.0941 L 410.1222 361.9565 L 408.377 360.7672 L 410.7815 358.4402 L 413.8453 358.4402 L 414.7761 357.4577 L 414.5046 355.0274 L 415.7844 354.4068 L 417.4521 355.0791 L 416.2498 350.3218 L 417.103 348.5119 L 416.0947 344.7371 L 414.1944 341.7379 L 412.6431 341.5311 L 411.4408 339.9798 L 412.5655 336.722 L 415.2027 334.2917 L 416.1335 335.8947 L 419.9729 338.1699 L 422.1835 337.0323 L 424.782 337.3943 L 426.9926 341.1691 L 427.0701 342.6687 L 429.2032 345.5644 L 431.1035 346.7021 L 433.8958 355.6996 L 433.5468 356.3718 L 436.9597 359.1642 L 439.3642 362.577 L 441.1869 364.0766 L 440.4889 365.3693 L 435.7186 364.4903 L 433.8183 362.939 L 428.0785 359.2159 L 427.0701 362.939 L 428.1948 368.8339 L 429.6298 369.8164 L 430.5993 371.5745 L 429.3583 372.557 L 431.8404 377.4695 L 432.616 380.7789 L 433.8571 382.7439 L 434.0897 385.6913 L 433.7795 389.1042 L 434.6327 390.7589 L 434.1285 393.1893 L 432.9651 393.5513 L 434.1285 396.4987 L 436.0677 396.1367 L 437.6577 393.8615 L 439.6356 394.1718 L 444.561 392.879 L 445.0652 392.1551 L 449.1373 394.6372 L 449.37 396.1367 L 445.7633 396.7573 L 444.9101 398.7222 L 445.5306 399.9116 L 444.8713 403.8415 L 441.7687 407.6681 L 439.3254 407.3578 L 439.2478 409.8916 L 435.3696 409.1676 L 432.7711 410.3053 L 425.2861 411.236 L 423.7348 413.7181 L 421.3303 414.3386 L 420.9813 411.1326 L 418.2277 412.0117 L 416.7152 411.3912 L 415.6681 409.4262 L 414.3883 408.8574 L 412.9533 404.9791 L 407.5238 403.3761 L 407.2135 402.4971 Z" fill="#000" fill-opacity="1" stroke="#000" stroke-width="0" paint-order="fill" stroke-opacity="1" stroke-dasharray="" stroke-linecap="butt" stroke-linejoin="miter" stroke-miterlimit="10" transform="matrix(1.100000023841858,0,0,1.100000023841858,-40.00001525878906,-26.649986267089844)" clip-path="none" style="filter: url(#f1)"/>
<path d="M 360.9073 342.617 L 361.1012 339.6695 L 359.6662 337.8597 L 355.5165 335.5844 L 355.1675 333.4643 L 353.7713 332.6887 L 353.8101 331.2408 L 353.1896 330.8271 L 351.9098 325.4493 L 351.871 323.4326 L 353.112 322.8121 L 354.5082 320.4851 L 355.439 321.4159 L 355.3226 323.0189 L 357.1066 324.6736 L 359.5887 324.6219 L 357.3781 326.8972 L 357.7271 329.3792 L 359.5887 329.3275 L 361.4502 327.5694 L 363.1954 329.6378 L 361.9544 331.3959 L 363.273 332.275 L 362.381 333.1024 L 364.3977 336.4118 L 363.5833 339.4627 L 361.9932 340.3935 L 360.9073 342.617 Z" fill="#000" fill-opacity="1" stroke="#000" stroke-width="0" paint-order="fill" stroke-opacity="1" stroke-dasharray="" stroke-linecap="butt" stroke-linejoin="miter" stroke-miterlimit="10" transform="matrix(1.100000023841858,0,0,1.100000023841858,-40.00001525878906,-26.649986267089844)" clip-path="none" style="filter: url(#f1)"/>
<path d="M 415.2027 334.2917 L 412.5655 336.722 L 411.4408 339.9798 L 412.6431 341.5311 L 414.1944 341.7379 L 416.0947 344.7371 L 417.103 348.5119 L 416.2498 350.3218 L 417.4521 355.0791 L 415.7844 354.4068 L 414.5046 355.0274 L 414.7761 357.4577 L 413.8453 358.4402 L 410.7815 358.4402 L 408.377 360.7672 L 410.1222 361.9565 L 409.269 363.0941 L 407.0196 362.4736 L 405.7786 361.2843 L 403.568 362.1633 L 402.9087 364.3351 L 405.8949 367.8514 L 405.9337 370.3335 L 407.2523 373.7464 L 407.1747 377.6763 L 406.7093 378.6071 L 401.4349 379.2793 L 399.7285 380.5204 L 398.4487 379.2793 L 396.5483 378.9691 L 393.4458 376.3318 L 389.6063 374.8323 L 388.7143 371.3677 L 389.7614 369.6096 L 389.0246 367.4895 L 390.4595 364.8005 L 386.2322 363.4044 L 383.3623 362.9907 L 384.4094 359.9915 L 385.5341 359.009 L 385.3014 356.5269 L 386.9691 354.9239 L 387.0854 353.5795 L 388.0162 350.632 L 389.7614 349.2358 L 390.8473 346.7021 L 392.7477 343.5995 L 396.6259 340.1349 L 398.6038 339.5144 L 397.673 337.6011 L 398.6814 337.2909 L 400 335.2225 L 398.7589 331.8096 L 400.0388 330.31 L 402.0942 331.8096 L 406.2827 331.7579 L 408.6485 330.4651 L 412.3716 331.7579 L 415.2027 334.2917 Z" fill="#000" fill-opacity="1" stroke="#000" stroke-width="0" paint-order="fill" stroke-opacity="1" stroke-dasharray="" stroke-linecap="butt" stroke-linejoin="miter" stroke-miterlimit="10" transform="matrix(1.100000023841858,0,0,1.100000023841858,-40.00001525878906,-26.649986267089844)" clip-path="none" style="filter: url(#f1)"/>
<path d="M 412.6431 304.1448 L 413.3799 307.4542 L 415.3966 308.8504 L 426.6823 306.3683 L 429.591 302.1798 L 432.4221 303.0072 L 433.9734 304.7136 L 435.5247 307.7645 L 435.0205 311.8496 L 436.8433 315.3659 L 434.2837 320.1749 L 431.1811 322.9672 L 435.292 324.6219 L 435.1369 327.9831 L 432.9263 331.2408 L 432.6548 334.1366 L 431.6465 335.9981 L 427.8846 337.2391 L 424.782 337.3943 L 422.1835 337.0323 L 419.9729 338.1699 L 416.1335 335.8947 L 415.2027 334.2917 L 412.3716 331.7579 L 408.6485 330.4651 L 406.2827 331.7579 L 402.0942 331.8096 L 400.0388 330.31 L 398.7589 331.8096 L 400 335.2225 L 398.6814 337.2909 L 397.673 337.6011 L 398.6038 339.5144 L 396.6259 340.1349 L 392.7477 343.5995 L 390.8473 346.7021 L 388.5979 345.2025 L 389.296 340.4452 L 386.814 334.9122 L 387.2018 334.0848 L 385.8832 332.637 L 381.3844 330.5169 L 378.5921 331.1374 L 377.2347 328.5519 L 375.8385 327.466 L 374.1709 324.6736 L 373.8994 321.3642 L 372.193 321.1574 L 370.3702 319.2441 L 369.2455 315.9347 L 368.1596 314.8488 L 367.8493 309.8846 L 372.5808 309.5226 L 372.6971 305.3858 L 376.0712 305.3858 L 378.0879 304.1448 L 379.0575 305.0239 L 384.4482 304.9204 L 391.4291 302.8003 L 393.6397 302.8003 L 398.7202 301.4042 L 400.9695 300.2148 L 403.568 301.5076 L 406.4767 303.576 L 408.6485 304.1965 L 412.6431 304.1448 Z" fill="#000" fill-opacity="1" stroke="#000" stroke-width="0" paint-order="fill" stroke-opacity="1" stroke-dasharray="" stroke-linecap="butt" stroke-linejoin="miter" stroke-miterlimit="10" transform="matrix(1.100000023841858,0,0,1.100000023841858,-40.00001525878906,-26.649986267089844)" clip-path="none" style="filter: url(#f1)"/>
<path d="M 367.8493 309.8846 L 368.1596 314.8488 L 369.2455 315.9347 L 370.3702 319.2441 L 372.193 321.1574 L 373.8994 321.3642 L 374.1709 324.6736 L 375.8385 327.466 L 377.2347 328.5519 L 378.5921 331.1374 L 381.3844 330.5169 L 385.8832 332.637 L 387.2018 334.0848 L 386.814 334.9122 L 389.296 340.4452 L 388.5979 345.2025 L 390.8473 346.7021 L 389.7614 349.2358 L 388.0162 350.632 L 387.0854 353.5795 L 385.5729 354.3551 L 381.9274 354.7171 L 380.1046 353.9415 L 378.9411 355.5962 L 375.7222 358.2851 L 373.3177 361.4394 L 368.0433 354.8205 L 367.3064 350.9423 L 364.7467 348.2017 L 363.5833 345.1508 L 360.9073 342.617 L 361.9932 340.3935 L 363.5833 339.4627 L 364.3977 336.4118 L 362.381 333.1024 L 363.273 332.275 L 361.9544 331.3959 L 363.1954 329.6378 L 361.4502 327.5694 L 359.5887 329.3275 L 357.7271 329.3792 L 357.3781 326.8972 L 359.5887 324.6219 L 357.1066 324.6736 L 355.3226 323.0189 L 355.439 321.4159 L 354.5082 320.4851 L 353.112 322.8121 L 351.871 323.4326 L 349.8931 321.0022 L 349.0786 319.089 L 341.6712 314.4351 L 341.8263 312.6252 L 342.8347 311.4876 L 341.3222 308.023 L 341.0895 306.0064 L 339.2279 303.4209 L 338.9564 302.1798 L 336.0865 298.5084 L 338.0644 296.5434 L 338.4135 293.1823 L 340.3526 292.9755 L 341.0119 293.9579 L 339.3442 296.7503 L 341.0895 296.9054 L 342.7571 298.2499 L 342.951 301.7661 L 344.735 301.8179 L 346.9844 300.8354 L 347.76 299.3358 L 351.7546 296.44 L 352.8405 293.3374 L 357.7659 291.0622 L 358.464 292.4584 L 359.8602 292.6135 L 360.4807 294.1131 L 361.9156 294.6819 L 364.2038 300.1631 L 364.4365 301.611 L 365.949 303.6277 L 365.9878 306.9371 L 367.8493 309.8846 Z" fill="#000" fill-opacity="1" stroke="#000" stroke-width="0" paint-order="fill" stroke-opacity="1" stroke-dasharray="" stroke-linecap="butt" stroke-linejoin="miter" stroke-miterlimit="10" transform="matrix(1.100000023841858,0,0,1.100000023841858,-40.00001525878906,-26.649986267089844)" clip-path="none" style="filter: url(#f1)"/>
<path d="M 294.473 218.9269 L 294.0851 217.6858 L 288.9271 212.5148 L 288.1514 210.2913 L 284.5834 207.137 L 280.4725 204.7066 L 272.7936 200.8801 L 276.0125 196.5365 L 276.8657 194.4163 L 280.201 190.6932 L 287.2982 188.5731 L 288.3066 187.8492 L 288.3841 181.4889 L 291.4092 183.8675 L 292.8829 186.0393 L 292.7665 188.418 L 294.6669 189.0902 L 295.2874 190.2278 L 298.0022 190.3313 L 299.7862 191.624 L 301.8028 192.2445 L 303.0439 191.4689 L 305.0994 192.5031 L 303.5481 194.9334 L 304.3237 196.3813 L 303.4317 198.3463 L 300.0576 199.6391 L 299.5535 200.8284 L 299.9801 203.9827 L 301.7253 205.0169 L 302.5397 207.0853 L 306.4567 208.5332 L 306.4567 209.6708 L 302.9275 212.7217 L 302.307 215.3589 L 298.8554 214.3764 L 294.473 218.9269 Z" fill="#000" fill-opacity="1" stroke="#000" stroke-width="0" paint-order="fill" stroke-opacity="1" stroke-dasharray="" stroke-linecap="butt" stroke-linejoin="miter" stroke-miterlimit="10" transform="matrix(1.100000023841858,0,0,1.100000023841858,-40.00001525878906,-26.649986267089844)" clip-path="none" style="filter: url(#f1)"/>
<path d="M 262.4775 147.5672 L 264.0287 144.9817 L 266.8987 142.6547 L 267.2477 141.1551 L 269.1092 138.8799 L 272.7548 136.6564 L 274.5 134.0709 L 278.3783 133.1401 L 278.9988 131.4337 L 280.744 132.2093 L 280.5889 133.6055 L 281.6748 136.0358 L 281.7911 140.1726 L 283.1097 142.7064 L 279.8908 145.6539 L 277.525 145.1368 L 275.8186 145.5505 L 275.1205 147.1018 L 271.0484 150.5146 L 268.0621 149.4804 L 265.5413 149.5321 L 262.4775 147.5672 Z" fill="#000" fill-opacity="1" stroke="#000" stroke-width="0" paint-order="fill" stroke-opacity="1" stroke-dasharray="" stroke-linecap="butt" stroke-linejoin="miter" stroke-miterlimit="10" transform="matrix(1.100000023841858,0,0,1.100000023841858,-40.00001525878906,-26.649986267089844)" clip-path="none" style="filter: url(#f1)"/>
<path d="M 449.1373 394.6372 L 445.0652 392.1551 L 444.561 392.879 L 439.6356 394.1718 L 437.6577 393.8615 L 436.0677 396.1367 L 434.1285 396.4987 L 432.9651 393.5513 L 434.1285 393.1893 L 434.6327 390.7589 L 433.7795 389.1042 L 434.0897 385.6913 L 433.8571 382.7439 L 432.616 380.7789 L 431.8404 377.4695 L 429.3583 372.557 L 430.5993 371.5745 L 429.6298 369.8164 L 428.1948 368.8339 L 427.0701 362.939 L 428.0785 359.2159 L 433.8183 362.939 L 435.7186 364.4903 L 440.4889 365.3693 L 441.1869 364.0766 L 443.9405 365.0074 L 446.9655 363.6112 L 450.5335 364.542 L 454.9547 367.5412 L 458.8717 368.4202 L 460.074 370.2301 L 462.3621 370.7472 L 464.7279 372.8673 L 466.5119 376.4353 L 466.4731 380.4686 L 465.775 382.899 L 461.9743 387.5012 L 459.7637 388.1217 L 457.4756 389.7764 L 456.8938 390.914 L 457.2429 393.3961 L 455.3425 393.8615 L 451.0765 392.9824 L 449.1373 394.6372 Z" fill="#000" fill-opacity="1" stroke="#000" stroke-width="0" paint-order="fill" stroke-opacity="1" stroke-dasharray="" stroke-linecap="butt" stroke-linejoin="miter" stroke-miterlimit="10" transform="matrix(1.100000023841858,0,0,1.100000023841858,-40.00001525878906,-26.649986267089844)" clip-path="none" style="filter: url(#f1)"/>
<path d="M 449.1373 394.6372 L 451.0765 392.9824 L 455.3425 393.8615 L 457.2429 393.3961 L 457.2429 394.8957 L 458.6003 396.7056 L 460.5394 397.4295 L 464.2237 396.447 L 466.4731 398.3086 L 467.4426 396.3436 L 467.5978 393.4478 L 468.7613 394.2235 L 470.7392 397.5846 L 472.2517 398.1017 L 471.1658 399.8082 L 471.0106 402.2385 L 475.3155 403.9449 L 478.7671 403.0659 L 478.8447 401.8765 L 483.7313 404.1001 L 484.9723 403.221 L 486.3297 404.3586 L 486.1358 406.427 L 489.4323 409.4262 L 489.7426 414.804 L 491.9919 417.4929 L 491.2551 419.975 L 493.2718 422.8708 L 493.0778 424.7323 L 492.341 431.0927 L 490.7509 432.7474 L 490.1692 435.85 L 486.2909 435.7983 L 484.5069 436.7807 L 482.529 439.5731 L 482.529 441.8483 L 479.7755 443.6582 L 479.2713 444.7958 L 480.1245 447.4847 L 481.7922 449.036 L 479.4264 454.3621 L 478.1854 455.2929 L 474.8501 453.2245 L 471.2433 452.1903 L 468.1795 449.398 L 464.6503 448.1569 L 462.75 445.6231 L 460.6557 444.7958 L 459.182 441.9517 L 456.4284 440.2453 L 454.2178 439.5214 L 451.9297 439.5214 L 449.9518 438.7457 L 447.6248 436.9359 L 443.8629 435.488 L 440.9542 433.4196 L 438.6661 433.161 L 438.2007 431.8683 L 435.9513 430.7307 L 429.7849 428.9725 L 426.6435 427.2144 L 422.455 424.0601 L 422.1448 422.8708 L 413.4187 418.9925 L 412.9533 417.3378 L 404.46 413.563 L 403.9946 412.8908 L 399.4182 410.5638 L 401.9779 405.9616 L 407.2135 402.4971 L 407.5238 403.3761 L 412.9533 404.9791 L 414.3883 408.8574 L 415.6681 409.4262 L 416.7152 411.3912 L 418.2277 412.0117 L 420.9813 411.1326 L 421.3303 414.3386 L 423.7348 413.7181 L 425.2861 411.236 L 432.7711 410.3053 L 435.3696 409.1676 L 439.2478 409.8916 L 439.3254 407.3578 L 441.7687 407.6681 L 444.8713 403.8415 L 445.5306 399.9116 L 444.9101 398.7222 L 445.7633 396.7573 L 449.37 396.1367 L 449.1373 394.6372 Z" fill="#000" fill-opacity="1" stroke="#000" stroke-width="0" paint-order="fill" stroke-opacity="1" stroke-dasharray="" stroke-linecap="butt" stroke-linejoin="miter" stroke-miterlimit="10" transform="matrix(1.100000023841858,0,0,1.100000023841858,-40.00001525878906,-26.649986267089844)" clip-path="none" style="filter: url(#f1)"/>
<path d="M 536.902 356.9406 L 537.0183 362.7838 L 536.3203 368.989 L 535.3895 370.954 L 533.6443 371.678 L 535.5058 373.7464 L 536.0876 378.8656 L 537.5613 380.1584 L 538.5309 383.261 L 538.143 384.5537 L 535.3119 385.226 L 535.661 388.3803 L 531.6664 391.1209 L 531.4725 392.879 L 529.7272 393.1893 L 529.1455 396.8607 L 527.0513 397.6363 L 526.2756 401.7731 L 528.4474 405.0309 L 531.5112 408.2369 L 530.1151 408.8574 L 528.0596 411.236 L 526.3532 414.7523 L 524.8019 414.1318 L 524.1038 412.5805 L 521.7768 410.7189 L 520.3419 410.5121 L 519.0233 408.1334 L 518.8294 409.1159 L 514.8736 409.5813 L 516.6963 410.3053 L 513.8264 410.9258 L 513.4774 411.8049 L 516.3473 417.2861 L 516.6963 419.3028 L 513.5938 415.4763 L 513.7101 416.7173 L 512.5078 418.734 L 511.3832 418.6306 L 511.7322 422.1468 L 514.2531 422.7674 L 514.6021 423.8533 L 516.3861 423.6981 L 514.796 422.3537 L 516.3473 420.8024 L 517.2781 423.181 L 518.5579 423.1293 L 518.9845 424.9909 L 524.5304 426.1802 L 524.7631 427.9901 L 522.7076 430.1102 L 524.6467 430.2136 L 527.4779 432.1786 L 530.6192 432.0751 L 532.6359 431.0927 L 534.8853 431.4029 L 534.0321 432.5922 L 532.1705 432.3337 L 533.1789 433.4713 L 532.9462 435.7983 L 531.7052 437.7115 L 532.9462 439.056 L 533.5279 441.021 L 532.8686 441.8483 L 529.3782 443.3996 L 528.6026 445.106 L 524.3753 449.6048 L 523.8711 451.2595 L 522.0483 451.7766 L 519.4887 453.4313 L 518.4803 455.7583 L 516.7739 455.7583 L 510.8014 451.9835 L 507.4273 445.6749 L 507.6988 443.8133 L 510.8402 441.9517 L 505.178 436.4705 L 503.9369 433.0576 L 504.4411 431.0927 L 503.0061 428.9725 L 502.3468 426.3871 L 499.3218 425.4046 L 496.6458 426.4388 L 493.0778 424.7323 L 493.2718 422.8708 L 491.2551 419.975 L 491.9919 417.4929 L 489.7426 414.804 L 489.4323 409.4262 L 490.3631 408.9091 L 490.6733 406.5304 L 489.9365 403.9449 L 489.9365 401.4112 L 490.6345 400.1184 L 490.4019 396.2402 L 489.0832 395.9299 L 487.6871 394.1718 L 490.5958 391.8965 L 491.0224 388.6905 L 493.0391 387.9666 L 494.4352 383.7264 L 495.017 380.6755 L 494.125 378.7105 L 494.9394 374.3669 L 498.0032 373.5395 L 500.6404 367.8514 L 504.1696 363.7146 L 505.1392 361.9565 L 505.0228 359.371 L 505.7597 355.9581 L 506.5353 355.7513 L 521.5054 363.7146 L 522.4749 363.7663 L 536.902 356.9406 Z" fill="#000" fill-opacity="1" stroke="#000" stroke-width="0" paint-order="fill" stroke-opacity="1" stroke-dasharray="" stroke-linecap="butt" stroke-linejoin="miter" stroke-miterlimit="10" transform="matrix(1.100000023841858,0,0,1.100000023841858,-40.00001525878906,-26.649986267089844)" clip-path="none" style="filter: url(#f1)"/>
<path d="M 484.8172 466.5657 L 482.0248 464.4456 L 480.2796 463.9285 L 480.8614 462.6874 L 480.0857 457.2579 L 478.1854 455.2929 L 479.4264 454.3621 L 481.7922 449.036 L 480.1245 447.4847 L 479.2713 444.7958 L 479.7755 443.6582 L 482.529 441.8483 L 482.529 439.5731 L 484.5069 436.7807 L 486.2909 435.7983 L 490.1692 435.85 L 490.7509 432.7474 L 492.341 431.0927 L 493.0778 424.7323 L 496.6458 426.4388 L 499.3218 425.4046 L 502.3468 426.3871 L 503.0061 428.9725 L 504.4411 431.0927 L 503.9369 433.0576 L 505.178 436.4705 L 510.8402 441.9517 L 507.6988 443.8133 L 507.4273 445.6749 L 506.3027 447.2261 L 505.3719 447.0193 L 504.2472 444.7958 L 502.6959 444.2787 L 500.9895 445.7783 L 500.4077 447.8467 L 500.6792 449.8634 L 497.9256 453.1211 L 495.6375 454.1553 L 493.582 457.051 L 492.9615 458.9643 L 490.2855 462.7391 L 485.9419 464.9109 L 484.8172 466.5657 Z" fill="#000" fill-opacity="1" stroke="#000" stroke-width="0" paint-order="fill" stroke-opacity="1" stroke-dasharray="" stroke-linecap="butt" stroke-linejoin="miter" stroke-miterlimit="10" transform="matrix(1.100000023841858,0,0,1.100000023841858,-40.00001525878906,-26.649986267089844)" clip-path="none" style="filter: url(#f1)"/>
<path d="M 507.4273 445.6749 L 510.8014 451.9835 L 516.7739 455.7583 L 518.4803 455.7583 L 519.9541 456.0685 L 521.5442 457.775 L 521.7381 460.981 L 517.7823 464.3421 L 514.796 464.2904 L 513.8652 466.0486 L 515.339 471.8401 L 513.3998 475.5632 L 510.9953 477.9936 L 507.3498 479.4931 L 501.61 479.7 L 498.042 476.9594 L 495.4048 475.4081 L 492.341 472.4089 L 490.9448 471.6332 L 490.4794 470.2888 L 486.7175 468.3755 L 484.8172 466.5657 L 485.9419 464.9109 L 490.2855 462.7391 L 492.9615 458.9643 L 493.582 457.051 L 495.6375 454.1553 L 497.9256 453.1211 L 500.6792 449.8634 L 500.4077 447.8467 L 500.9895 445.7783 L 502.6959 444.2787 L 504.2472 444.7958 L 505.3719 447.0193 L 506.3027 447.2261 L 507.4273 445.6749 Z" fill="#000" fill-opacity="1" stroke="#000" stroke-width="0" paint-order="fill" stroke-opacity="1" stroke-dasharray="" stroke-linecap="butt" stroke-linejoin="miter" stroke-miterlimit="10" transform="matrix(1.100000023841858,0,0,1.100000023841858,-40.00001525878906,-26.649986267089844)" clip-path="none" style="filter: url(#f1)"/>
<path d="M 336.0865 298.5084 L 332.2858 292.6135 L 331.1612 289.2523 L 329.765 287.8562 L 329.4935 285.5292 L 328.1749 283.4608 L 328.2913 279.7894 L 325.0723 275.6526 L 325.0723 274.3082 L 323.7149 271.1539 L 323.9864 269.8094 L 321.4268 267.6376 L 322.0861 265.8277 L 320.6899 265.6726 L 320.845 267.0688 L 319.4876 265.5175 L 320.4572 263.8628 L 318.7896 262.7252 L 318.5956 260.5533 L 319.3325 260.0879 L 319.7591 257.3473 L 321.1165 255.7443 L 327.5544 253.4174 L 327.9422 250.7285 L 329.6486 248.143 L 330.7733 245.1438 L 334.2637 242.0929 L 335.6211 239.6108 L 337.6378 239.8694 L 341.3222 238.3181 L 342.2917 241.6275 L 345.084 243.851 L 348.1479 248.143 L 348.7684 250.4182 L 349.5052 253.9345 L 351.2505 255.6409 L 351.2505 256.8302 L 353.0344 258.8986 L 354.4694 259.4157 L 356.2146 261.5358 L 361.14 264.3799 L 362.032 265.9829 L 359.356 268.7752 L 357.0678 274.153 L 356.7576 276.118 L 354.547 279.5826 L 356.2146 283.2023 L 356.6412 286.0463 L 358.3864 287.3391 L 357.7659 291.0622 L 352.8405 293.3374 L 351.7546 296.44 L 347.76 299.3358 L 346.9844 300.8354 L 344.735 301.8179 L 342.951 301.7661 L 342.7571 298.2499 L 341.0895 296.9054 L 339.3442 296.7503 L 341.0119 293.9579 L 340.3526 292.9755 L 338.4135 293.1823 L 338.0644 296.5434 L 336.0865 298.5084 Z" fill="#000" fill-opacity="1" stroke="#000" stroke-width="0" paint-order="fill" stroke-opacity="1" stroke-dasharray="" stroke-linecap="butt" stroke-linejoin="miter" stroke-miterlimit="10" transform="matrix(1.100000023841858,0,0,1.100000023841858,-40.00001525878906,-26.649986267089844)" clip-path="none" style="filter: url(#f1)"/>
<path d="M 302.307 215.3589 L 302.9275 212.7217 L 306.4567 209.6708 L 306.4567 208.5332 L 302.5397 207.0853 L 301.7253 205.0169 L 299.9801 203.9827 L 299.5535 200.8284 L 300.0576 199.6391 L 303.4317 198.3463 L 304.3237 196.3813 L 303.5481 194.9334 L 305.0994 192.5031 L 303.0439 191.4689 L 301.8028 192.2445 L 299.7862 191.624 L 301.9968 189.7107 L 300.4842 185.574 L 301.1048 180.2478 L 302.6173 180.2995 L 302.5009 176.6281 L 301.6865 175.5939 L 301.2987 172.2845 L 303.7032 169.699 L 304.6727 167.8892 L 307.6202 168.1994 L 308.551 168.8716 L 309.792 167.734 L 310.4513 165.7173 L 312.3129 164.9934 L 311.6536 162.7699 L 313.36 160.5464 L 316.6953 158.9951 L 317.8976 161.4771 L 318.5956 164.4763 L 319.5652 166.131 L 319.5264 168.5614 L 318.0915 171.9742 L 319.0998 177.1969 L 319.0998 180.2478 L 316.5014 184.1778 L 315.3379 187.9526 L 318.8671 193.1753 L 322.7841 195.2437 L 325.1111 199.8976 L 329.1057 202.4314 L 330.3855 204.2929 L 332.5573 208.8951 L 332.6737 213.4973 L 333.3718 215.2037 L 334.6516 218.6166 L 336.1641 220.323 L 336.8622 223.6842 L 338.8013 225.8043 L 336.3192 225.9077 L 335.0782 226.735 L 334.7291 230.303 L 331.2775 231.0787 L 329.9977 230.5616 L 327.7871 232.5266 L 326.546 232.7851 L 326.3133 231.3372 L 323.9864 229.8894 L 322.0085 229.8376 L 319.8367 228.3381 L 317.3158 228.5966 L 315.5706 227.8727 L 311.7312 229.1137 L 310.4513 231.3889 L 308.9776 230.4065 L 308.9388 228.0278 L 308.1632 226.5282 L 305.8362 224.4081 L 302.307 223.4256 L 301.4926 222.7017 L 302.4621 220.6333 L 302.0743 218.8751 L 302.307 215.3589 Z" fill="#000" fill-opacity="1" stroke="#000" stroke-width="0" paint-order="fill" stroke-opacity="1" stroke-dasharray="" stroke-linecap="butt" stroke-linejoin="miter" stroke-miterlimit="10" transform="matrix(1.100000023841858,0,0,1.100000023841858,-40.00001525878906,-26.649986267089844)" clip-path="none" style="filter: url(#f1)"/>
<path d="M 357.7659 291.0622 L 358.3864 287.3391 L 356.6412 286.0463 L 356.2146 283.2023 L 354.547 279.5826 L 356.7576 276.118 L 357.0678 274.153 L 359.356 268.7752 L 362.032 265.9829 L 361.14 264.3799 L 356.2146 261.5358 L 354.4694 259.4157 L 353.0344 258.8986 L 351.2505 256.8302 L 351.2505 255.6409 L 349.5052 253.9345 L 348.7684 250.4182 L 352.2976 250.4182 L 355.2838 249.5908 L 356.2534 252.0212 L 358.7355 252.0729 L 359.3948 250.9353 L 361.2951 250.5216 L 368.4699 251.9178 L 370.6029 250.7802 L 370.758 247.5224 L 371.4561 246.7985 L 374.2484 251.349 L 374.9465 254.193 L 377.0796 254.6067 L 378.2818 252.5383 L 379.9495 251.1938 L 379.4841 253.0037 L 381.1905 256.8819 L 381.5008 260.9153 L 383.4787 263.3457 L 383.9828 266.9137 L 386.8915 270.5851 L 388.947 270.1197 L 391.7005 267.7927 L 394.8807 266.5517 L 398.0609 261.2256 L 400.7756 257.4507 L 406.1664 253.3657 L 408.9975 252.4349 L 411.5959 252.7451 L 412.5267 253.7276 L 412.6043 255.6409 L 410.3937 257.4507 L 410.0834 260.5016 L 408.9199 262.8803 L 408.8812 266.3448 L 407.9892 269.2923 L 408.377 270.8953 L 412.1001 276.3249 L 406.9808 278.7552 L 401.9779 279.5826 L 398.565 279.2206 L 394.2214 281.3407 L 390.3432 282.013 L 387.5896 281.9095 L 384.9524 282.3749 L 383.4399 283.5125 L 382.7806 286.6151 L 384.0992 292.0447 L 380.1046 294.2682 L 378.0879 293.1823 L 373.7055 292.8203 L 371.8439 291.0105 L 367.2676 290.4417 L 365.4836 291.1139 L 364.0099 293.1823 L 361.9156 294.6819 L 360.4807 294.1131 L 359.8602 292.6135 L 358.464 292.4584 L 357.7659 291.0622 Z" fill="#000" fill-opacity="1" stroke="#000" stroke-width="0" paint-order="fill" stroke-opacity="1" stroke-dasharray="" stroke-linecap="butt" stroke-linejoin="miter" stroke-miterlimit="10" transform="matrix(1.100000023841858,0,0,1.100000023841858,-40.00001525878906,-26.649986267089844)" clip-path="none" style="filter: url(#f1)"/>
<path d="M 353.7713 332.6887 L 352.4139 332.4818 L 353.1896 330.8271 L 353.8101 331.2408 L 353.7713 332.6887 Z" fill="#000" fill-opacity="1" stroke="#000" stroke-width="0" paint-order="fill" stroke-opacity="1" stroke-dasharray="" stroke-linecap="butt" stroke-linejoin="miter" stroke-miterlimit="10" transform="matrix(1.100000023841858,0,0,1.100000023841858,-40.00001525878906,-26.649986267089844)" clip-path="none" style="filter: url(#f1)"/>
<path d="M 302.307 215.3589 L 302.0743 218.8751 L 302.4621 220.6333 L 301.4926 222.7017 L 302.307 223.4256 L 305.8362 224.4081 L 308.1632 226.5282 L 308.9388 228.0278 L 308.9776 230.4065 L 310.4513 231.3889 L 311.7312 229.1137 L 315.5706 227.8727 L 317.3158 228.5966 L 319.8367 228.3381 L 322.0085 229.8376 L 323.9864 229.8894 L 326.3133 231.3372 L 326.546 232.7851 L 327.7871 232.5266 L 329.9977 230.5616 L 331.2775 231.0787 L 334.7291 230.303 L 335.0782 226.735 L 336.3192 225.9077 L 338.8013 225.8043 L 336.8622 223.6842 L 336.1641 220.323 L 334.6516 218.6166 L 333.3718 215.2037 L 336.0477 214.5832 L 339.034 214.7383 L 340.4302 217.7375 L 341.8651 218.8234 L 341.6712 221.4606 L 342.4856 224.2013 L 345.7821 228.1312 L 345.3167 232.5783 L 346.9456 235.7326 L 346.868 237.9561 L 347.8764 239.6108 L 350.7851 239.7142 L 355.4777 241.2655 L 358.1149 243.7476 L 358.8518 249.9011 L 359.3948 250.9353 L 358.7355 252.0729 L 356.2534 252.0212 L 355.2838 249.5908 L 352.2976 250.4182 L 348.7684 250.4182 L 348.1479 248.143 L 345.084 243.851 L 342.2917 241.6275 L 341.3222 238.3181 L 337.6378 239.8694 L 335.6211 239.6108 L 334.2637 242.0929 L 330.7733 245.1438 L 329.6486 248.143 L 327.9422 250.7285 L 327.5544 253.4174 L 321.1165 255.7443 L 319.7591 257.3473 L 319.3325 260.0879 L 318.5956 260.5533 L 317.82 258.6918 L 315.9584 256.2097 L 316.4238 255.3823 L 316.036 252.3832 L 314.6398 250.5216 L 311.8863 248.3498 L 312.7395 247.0053 L 310.8004 243.3339 L 307.6202 240.3865 L 307.5814 239.7659 L 303.5868 236.9219 L 299.7474 231.7509 L 300.4455 230.7684 L 297.0326 225.9077 L 297.2265 224.1496 L 296.2957 221.3572 L 294.473 218.9269 L 298.8554 214.3764 L 302.307 215.3589 Z" fill="#000" fill-opacity="1" stroke="#000" stroke-width="0" paint-order="fill" stroke-opacity="1" stroke-dasharray="" stroke-linecap="butt" stroke-linejoin="miter" stroke-miterlimit="10" transform="matrix(1.100000023841858,0,0,1.100000023841858,-40.00001525878906,-26.649986267089844)" clip-path="none" style="filter: url(#f1)"/>
<path d="M 361.9156 294.6819 L 364.0099 293.1823 L 365.4836 291.1139 L 367.2676 290.4417 L 371.8439 291.0105 L 373.7055 292.8203 L 378.0879 293.1823 L 380.1046 294.2682 L 384.0992 292.0447 L 382.7806 286.6151 L 383.4399 283.5125 L 384.9524 282.3749 L 387.5896 281.9095 L 390.3432 282.013 L 394.2214 281.3407 L 398.565 279.2206 L 401.9779 279.5826 L 406.9808 278.7552 L 412.1001 276.3249 L 414.2719 280.927 L 414.3495 283.4091 L 416.0947 287.701 L 415.862 291.7861 L 417.4133 296.0263 L 419.4688 297.0088 L 420.2444 298.5084 L 417.5684 299.8529 L 414.8149 302.5935 L 412.6431 304.1448 L 408.6485 304.1965 L 406.4767 303.576 L 403.568 301.5076 L 400.9695 300.2148 L 398.7202 301.4042 L 393.6397 302.8003 L 391.4291 302.8003 L 384.4482 304.9204 L 379.0575 305.0239 L 378.0879 304.1448 L 376.0712 305.3858 L 372.6971 305.3858 L 372.5808 309.5226 L 367.8493 309.8846 L 365.9878 306.9371 L 365.949 303.6277 L 364.4365 301.611 L 364.2038 300.1631 L 361.9156 294.6819 Z" fill="#000" fill-opacity="1" stroke="#000" stroke-width="0" paint-order="fill" stroke-opacity="1" stroke-dasharray="" stroke-linecap="butt" stroke-linejoin="miter" stroke-miterlimit="10" transform="matrix(1.100000023841858,0,0,1.100000023841858,-40.00001525878906,-26.649986267089844)" clip-path="none" style="filter: url(#f1)"/>
<path d="M 304.6727 167.8892 L 303.7032 169.699 L 301.2987 172.2845 L 301.6865 175.5939 L 302.5009 176.6281 L 302.6173 180.2995 L 301.1048 180.2478 L 300.4842 185.574 L 301.9968 189.7107 L 299.7862 191.624 L 298.0022 190.3313 L 295.2874 190.2278 L 294.6669 189.0902 L 292.7665 188.418 L 292.8829 186.0393 L 291.4092 183.8675 L 288.3841 181.4889 L 288.3066 187.8492 L 287.2982 188.5731 L 280.201 190.6932 L 276.8657 194.4163 L 276.0125 196.5365 L 272.7936 200.8801 L 269.1092 199.122 L 267.6355 197.7258 L 261.8957 193.8992 L 260.7322 191.624 L 260.7322 189.5039 L 262.4387 187.2287 L 265.58 188.6765 L 267.2865 186.1945 L 267.4416 184.0227 L 265.6964 179.679 L 262.4387 176.3696 L 261.0425 175.9042 L 259.4912 173.7841 L 260.1117 170.9918 L 262.1284 170.7849 L 262.555 169.4405 L 258.8319 164.4763 L 256.1947 161.5288 L 256.9316 160.7015 L 256.3498 156.7715 L 257.4745 154.91 L 257.1255 153.1001 L 258.095 151.2386 L 262.4775 147.5672 L 265.5413 149.5321 L 268.0621 149.4804 L 271.0484 150.5146 L 275.1205 147.1018 L 276.1289 150.5146 L 278.9988 150.2044 L 275.7023 154.8065 L 277.5638 156.6681 L 281.4421 154.1343 L 282.2177 152.4796 L 283.7302 152.1176 L 287.3758 154.548 L 289.1598 154.8065 L 290.8274 156.6164 L 294.822 155.6856 L 298.3124 157.8057 L 297.847 159.8224 L 299.6698 164.2695 L 303.0439 167.734 L 304.6727 167.8892 Z" fill="#000" fill-opacity="1" stroke="#000" stroke-width="0" paint-order="fill" stroke-opacity="1" stroke-dasharray="" stroke-linecap="butt" stroke-linejoin="miter" stroke-miterlimit="10" transform="matrix(1.100000023841858,0,0,1.100000023841858,-40.00001525878906,-26.649986267089844)" clip-path="none" style="filter: url(#f1)"/>
<path d="M 399.4182 410.5638 L 396.8974 408.7023 L 397.4016 407.6163 L 395.2685 406.1685 L 395.7727 405.186 L 393.0967 403.7381 L 391.0025 400.3253 L 388.9082 397.688 L 382.4703 394.0166 L 380.4536 392.2068 L 380.3761 390.6038 L 379.3289 387.8632 L 375.6834 384.7606 L 376.4978 384.2435 L 375.567 382.3819 L 373.3177 380.6238 L 372.8523 381.8131 L 372.3869 379.0208 L 372.6971 375.8665 L 370.0987 375.0391 L 370.7968 372.557 L 372.2705 372.4019 L 373.0462 373.9532 L 374.8302 366.507 L 373.9382 362.2667 L 373.3177 361.4394 L 375.7222 358.2851 L 378.9411 355.5962 L 380.1046 353.9415 L 381.9274 354.7171 L 385.5729 354.3551 L 387.0854 353.5795 L 386.9691 354.9239 L 385.3014 356.5269 L 385.5341 359.009 L 384.4094 359.9915 L 383.3623 362.9907 L 386.2322 363.4044 L 390.4595 364.8005 L 389.0246 367.4895 L 389.7614 369.6096 L 388.7143 371.3677 L 389.6063 374.8323 L 393.4458 376.3318 L 396.5483 378.9691 L 398.4487 379.2793 L 399.7285 380.5204 L 399.8449 383.2093 L 398.2548 386.467 L 400.1163 388.7939 L 400 391.276 L 401.4349 391.3277 L 403.4128 390.0867 L 404.5763 392.5688 L 406.244 394.1718 L 406.6706 396.2919 L 407.9892 398.4637 L 407.2135 402.4971 L 401.9779 405.9616 L 399.4182 410.5638 Z" fill="#eee" fill-opacity="1" stroke="#000000" stroke-width="0.3636363557547579" paint-order="fill" stroke-opacity="1" stroke-dasharray="" stroke-linecap="butt" stroke-linejoin="miter" stroke-miterlimit="10" transform="matrix(1.100000023841858,0,0,1.100000023841858,-40.00001525878906,-26.649986267089844)" clip-path="none"/>
<path d="M 465.232 315.4176 L 464.6891 318.0548 L 461.7028 323.5877 L 460.4618 329.0173 L 461.4314 331.8613 L 465.1545 334.0848 L 466.1628 337.3943 L 469.2654 339.1007 L 471.3597 344.4268 L 470.8167 347.0123 L 472.0965 349.5461 L 477.5261 351.7696 L 480.0469 351.7696 L 483.8864 353.5795 L 487.2993 354.562 L 490.4406 356.6821 L 498.4298 358.1817 L 501.959 357.6646 L 500.7568 356.2684 L 501.2997 355.4927 L 505.7597 355.9581 L 505.0228 359.371 L 505.1392 361.9565 L 504.1696 363.7146 L 500.6404 367.8514 L 498.0032 373.5395 L 494.9394 374.3669 L 494.125 378.7105 L 495.017 380.6755 L 494.4352 383.7264 L 493.0391 387.9666 L 491.0224 388.6905 L 490.5958 391.8965 L 487.6871 394.1718 L 489.0832 395.9299 L 490.4019 396.2402 L 490.6345 400.1184 L 489.9365 401.4112 L 489.9365 403.9449 L 490.6733 406.5304 L 490.3631 408.9091 L 489.4323 409.4262 L 486.1358 406.427 L 486.3297 404.3586 L 484.9723 403.221 L 483.7313 404.1001 L 478.8447 401.8765 L 478.7671 403.0659 L 475.3155 403.9449 L 471.0106 402.2385 L 471.1658 399.8082 L 472.2517 398.1017 L 470.7392 397.5846 L 468.7613 394.2235 L 467.5978 393.4478 L 467.4426 396.3436 L 466.4731 398.3086 L 464.2237 396.447 L 460.5394 397.4295 L 458.6003 396.7056 L 457.2429 394.8957 L 457.2429 393.3961 L 456.8938 390.914 L 457.4756 389.7764 L 459.7637 388.1217 L 461.9743 387.5012 L 465.775 382.899 L 466.4731 380.4686 L 466.5119 376.4353 L 464.7279 372.8673 L 462.3621 370.7472 L 460.074 370.2301 L 458.8717 368.4202 L 454.9547 367.5412 L 450.5335 364.542 L 446.9655 363.6112 L 443.9405 365.0074 L 441.1869 364.0766 L 439.3642 362.577 L 436.9597 359.1642 L 433.5468 356.3718 L 433.8958 355.6996 L 431.1035 346.7021 L 429.2032 345.5644 L 427.0701 342.6687 L 426.9926 341.1691 L 424.782 337.3943 L 427.8846 337.2391 L 431.6465 335.9981 L 432.6548 334.1366 L 432.9263 331.2408 L 435.1369 327.9831 L 435.292 324.6219 L 431.1811 322.9672 L 434.2837 320.1749 L 436.8433 315.3659 L 443.669 314.7453 L 445.2591 314.2799 L 446.888 312.5735 L 448.129 315.1073 L 450.6886 316.5552 L 453.2095 316.2449 L 455.2262 317.7962 L 456.9714 317.8996 L 460.0352 315.7795 L 462.8275 314.9522 L 464.8442 315.2624 L 465.232 315.4176 L 465.232 315.4176 Z" fill="#eee" fill-opacity="1" stroke="#000000" stroke-width="0.3636363557547579" paint-order="fill" stroke-opacity="1" stroke-dasharray="" stroke-linecap="butt" stroke-linejoin="miter" stroke-miterlimit="10" transform="matrix(1.100000023841858,0,0,1.100000023841858,-40.00001525878906,-26.649986267089844)" clip-path="none"/>
<path d="M 465.232 315.4176 L 462.8275 314.9522 L 460.0352 315.7795 L 456.9714 317.8996 L 455.2262 317.7962 L 453.2095 316.2449 L 450.6886 316.5552 L 448.129 315.1073 L 446.888 312.5735 L 445.2591 314.2799 L 443.669 314.7453 L 436.8433 315.3659 L 435.0205 311.8496 L 435.5247 307.7645 L 433.9734 304.7136 L 432.4221 303.0072 L 429.591 302.1798 L 426.6823 306.3683 L 415.3966 308.8504 L 413.3799 307.4542 L 412.6431 304.1448 L 414.8149 302.5935 L 417.5684 299.8529 L 420.2444 298.5084 L 419.4688 297.0088 L 417.4133 296.0263 L 415.862 291.7861 L 416.0947 287.701 L 414.3495 283.4091 L 414.2719 280.927 L 412.1001 276.3249 L 408.377 270.8953 L 407.9892 269.2923 L 408.8812 266.3448 L 408.9199 262.8803 L 410.0834 260.5016 L 410.3937 257.4507 L 412.6043 255.6409 L 412.5267 253.7276 L 411.5959 252.7451 L 408.9975 252.4349 L 406.1664 253.3657 L 400.7756 257.4507 L 398.0609 261.2256 L 394.8807 266.5517 L 391.7005 267.7927 L 388.947 270.1197 L 386.8915 270.5851 L 383.9828 266.9137 L 383.4787 263.3457 L 381.5008 260.9153 L 381.1905 256.8819 L 379.4841 253.0037 L 381.7722 251.9178 L 387.0466 247.1088 L 388.2877 247.0053 L 391.8945 249.1772 L 392.0108 247.9878 L 390.0717 244.7818 L 390.3819 243.4891 L 392.5538 242.7134 L 393.4458 240.7484 L 397.4791 240.7484 L 403.568 238.1112 L 408.726 237.2322 L 411.2081 235.9911 L 411.9062 234.6467 L 411.7123 228.1829 L 410.7039 223.7359 L 411.1305 222.4948 L 412.7206 222.4431 L 414.8924 223.8393 L 419.3136 224.5632 L 423.0368 226.0111 L 424.9371 227.2004 L 424.1227 227.5107 L 428.2336 231.6475 L 431.1035 233.2505 L 431.0647 235.0603 L 429.2032 235.2155 L 429.5522 237.077 L 432.0731 238.4732 L 433.5856 241.369 L 433.4692 242.6617 L 435.2532 246.7985 L 439.1315 249.3323 L 439.2478 252.0729 L 441.0706 254.0379 L 443.2424 254.9687 L 445.6081 259.002 L 447.7024 261.1739 L 448.0902 263.5008 L 446.0347 266.8102 L 445.0652 267.1205 L 442.1953 270.947 L 451.3479 271.0504 L 460.0352 272.8086 L 462.8275 274.2048 L 463.8359 277.1522 L 463.7195 279.3757 L 465.3096 280.4099 L 466.0853 282.3232 L 465.232 285.0121 L 483.5374 285.3224 L 487.9973 283.8228 L 488.8118 282.3232 L 492.1471 281.0305 L 495.4048 277.4108 L 499.8648 274.3599 L 502.0366 272.3432 L 503.4715 272.1881 L 502.2305 274.7736 L 501.1446 275.2907 L 502.9286 279.0655 L 500.9507 281.0305 L 500.6792 284.3399 L 496.5295 287.701 L 495.3272 294.0097 L 492.3798 297.6811 L 487.4932 301.3008 L 484.1967 302.5935 L 474.0357 307.7128 L 470.1186 307.9713 L 466.7446 306.5752 L 466.124 307.5059 L 467.4039 310.1431 L 465.6974 313.1423 L 465.232 315.4176 Z" fill="#eee" fill-opacity="1" stroke="#000000" stroke-width="0.3636363557547579" paint-order="fill" stroke-opacity="1" stroke-dasharray="" stroke-linecap="butt" stroke-linejoin="miter" stroke-miterlimit="10" transform="matrix(1.100000023841858,0,0,1.100000023841858,-40.00001525878906,-26.649986267089844)" clip-path="none"/>
<path d="M 465.6974 313.1423 L 467.4039 310.1431 L 466.124 307.5059 L 466.7446 306.5752 L 470.1186 307.9713 L 474.0357 307.7128 L 484.1967 302.5935 L 487.4932 301.3008 L 492.3798 297.6811 L 495.3272 294.0097 L 496.5295 287.701 L 500.6792 284.3399 L 500.2138 308.9021 L 502.6571 307.2991 L 504.8289 309.6261 L 508.1642 310.35 L 510.2585 309.8329 L 515.8044 307.0923 L 519.1784 307.3508 L 521.1563 308.2816 L 524.4141 308.0748 L 543.8053 344.7371 L 541.2844 347.426 L 542.3703 348.5119 L 541.6335 349.7529 L 539.7719 350.2183 L 536.8632 353.1141 L 536.902 356.9406 L 522.4749 363.7663 L 521.5054 363.7146 L 506.5353 355.7513 L 505.7597 355.9581 L 501.2997 355.4927 L 500.7568 356.2684 L 501.959 357.6646 L 498.4298 358.1817 L 490.4406 356.6821 L 487.2993 354.562 L 483.8864 353.5795 L 480.0469 351.7696 L 477.5261 351.7696 L 472.0965 349.5461 L 470.8167 347.0123 L 471.3597 344.4268 L 469.2654 339.1007 L 466.1628 337.3943 L 465.1545 334.0848 L 461.4314 331.8613 L 460.4618 329.0173 L 461.7028 323.5877 L 464.6891 318.0548 L 465.232 315.4176 L 465.232 315.4176 L 465.6974 313.1423 Z" fill="#eee" fill-opacity="1" stroke="#000000" stroke-width="0.3636363557547579" paint-order="fill" stroke-opacity="1" stroke-dasharray="" stroke-linecap="butt" stroke-linejoin="miter" stroke-miterlimit="10" transform="matrix(1.100000023841858,0,0,1.100000023841858,-40.00001525878906,-26.649986267089844)" clip-path="none"/>
<path d="M 339.034 214.7383 L 338.2971 213.9627 L 339.1116 206.7233 L 340.6629 205.0686 L 343.0674 206.0511 L 345.7821 206.0511 L 348.1479 205.0169 L 348.9235 202.9485 L 351.6771 200.3113 L 352.22 198.8634 L 350.1645 194.4681 L 347.7988 193.2787 L 343.9206 192.2962 L 342.3693 190.7967 L 339.5769 185.2637 L 339.7709 179.1619 L 341.2834 177.4038 L 343.3776 179.1619 L 347.5661 180.9718 L 350.3972 183.609 L 351.9485 184.2812 L 356.7188 184.488 L 359.7826 186.2462 L 362.0708 191.1586 L 363.4669 192.348 L 366.7634 192.2962 L 370.0987 189.9176 L 371.65 189.8142 L 375.2568 193.589 L 376.9632 194.4163 L 382.4315 194.1578 L 386.5037 195.0886 L 388.5979 196.0711 L 390.188 197.6741 L 391.1188 199.9493 L 390.4207 206.5682 L 389.7614 210.1362 L 387.3957 213.4456 L 386.1547 213.0836 L 384.1767 210.6016 L 380.9966 209.102 L 378.6309 209.8259 L 376.7693 213.3939 L 376.3815 215.0486 L 376.9632 217.3238 L 376.653 222.4431 L 377.5837 226.4765 L 383.0908 238.3181 L 383.8665 240.6967 L 383.4787 243.0754 L 381.3068 245.7643 L 379.9495 251.1938 L 378.2818 252.5383 L 377.0796 254.6067 L 374.9465 254.193 L 374.2484 251.349 L 371.4561 246.7985 L 370.758 247.5224 L 370.6029 250.7802 L 368.4699 251.9178 L 361.2951 250.5216 L 359.3948 250.9353 L 358.8518 249.9011 L 358.1149 243.7476 L 355.4777 241.2655 L 350.7851 239.7142 L 347.8764 239.6108 L 346.868 237.9561 L 346.9456 235.7326 L 345.3167 232.5783 L 345.7821 228.1312 L 342.4856 224.2013 L 341.6712 221.4606 L 341.8651 218.8234 L 340.4302 217.7375 L 339.034 214.7383 Z" fill="#eee" fill-opacity="1" stroke="#000000" stroke-width="0.3636363557547579" paint-order="fill" stroke-opacity="1" stroke-dasharray="" stroke-linecap="butt" stroke-linejoin="miter" stroke-miterlimit="10" transform="matrix(1.100000023841858,0,0,1.100000023841858,-40.00001525878906,-26.649986267089844)" clip-path="none"/>
<path d="M 341.2834 177.4038 L 339.7709 179.1619 L 339.5769 185.2637 L 342.3693 190.7967 L 343.9206 192.2962 L 347.7988 193.2787 L 350.1645 194.4681 L 352.22 198.8634 L 351.6771 200.3113 L 348.9235 202.9485 L 348.1479 205.0169 L 345.7821 206.0511 L 343.0674 206.0511 L 340.6629 205.0686 L 339.1116 206.7233 L 338.2971 213.9627 L 339.034 214.7383 L 336.0477 214.5832 L 333.3718 215.2037 L 332.6737 213.4973 L 332.5573 208.8951 L 330.3855 204.2929 L 329.1057 202.4314 L 325.1111 199.8976 L 322.7841 195.2437 L 318.8671 193.1753 L 315.3379 187.9526 L 316.5014 184.1778 L 319.0998 180.2478 L 319.0998 177.1969 L 318.0915 171.9742 L 319.5264 168.5614 L 319.5652 166.131 L 318.5956 164.4763 L 317.8976 161.4771 L 316.6953 158.9951 L 318.3242 155.4788 L 317.277 152.9967 L 319.6816 147.7223 L 319.9142 145.2919 L 321.5043 144.206 L 322.0861 141.4137 L 323.4047 140.0692 L 323.1332 138.156 L 324.5681 133.5021 L 324.5681 131.6405 L 326.7012 131.4337 L 327.7095 133.9157 L 329.1445 133.1918 L 328.3688 130.5546 L 331.898 126.5729 L 334.225 123.4186 L 337.25 121.4019 L 338.4523 128.7965 L 340.5077 133.2952 L 341.5548 140.3795 L 343.0286 143.0167 L 343.6491 145.809 L 343.0674 147.6189 L 342.6408 155.4788 L 340.6629 159.5122 L 338.9176 161.6323 L 338.1032 165.0451 L 339.6545 173.7841 L 341.2834 177.4038 Z" fill="#eee" fill-opacity="1" stroke="#000000" stroke-width="0.3636363557547579" paint-order="fill" stroke-opacity="1" stroke-dasharray="" stroke-linecap="butt" stroke-linejoin="miter" stroke-miterlimit="10" transform="matrix(1.100000023841858,0,0,1.100000023841858,-40.00001525878906,-26.649986267089844)" clip-path="none"/>
<path d="M 379.9495 251.1938 L 381.3068 245.7643 L 383.4787 243.0754 L 383.8665 240.6967 L 383.0908 238.3181 L 377.5837 226.4765 L 376.653 222.4431 L 376.9632 217.3238 L 376.3815 215.0486 L 376.7693 213.3939 L 378.6309 209.8259 L 380.9966 209.102 L 384.1767 210.6016 L 386.1547 213.0836 L 387.3957 213.4456 L 389.7614 210.1362 L 390.4207 206.5682 L 391.1188 199.9493 L 390.188 197.6741 L 388.5979 196.0711 L 386.5037 195.0886 L 382.4315 194.1578 L 376.9632 194.4163 L 375.2568 193.589 L 371.65 189.8142 L 370.0987 189.9176 L 366.7634 192.2962 L 363.4669 192.348 L 362.0708 191.1586 L 359.7826 186.2462 L 356.7188 184.488 L 351.9485 184.2812 L 350.3972 183.609 L 347.5661 180.9718 L 343.3776 179.1619 L 341.2834 177.4038 L 339.6545 173.7841 L 338.1032 165.0451 L 338.9176 161.6323 L 340.6629 159.5122 L 342.6408 155.4788 L 343.0674 147.6189 L 343.6491 145.809 L 343.0286 143.0167 L 341.5548 140.3795 L 340.5077 133.2952 L 338.4523 128.7965 L 337.25 121.4019 L 363.1567 112.1976 L 364.5141 111.4219 L 376.8081 101.9073 L 389.0246 87.3768 L 392.3986 73.9839 L 393.8724 75.1733 L 396.6647 75.0699 L 395.0746 69.8989 L 396.0442 67.0031 L 395.6564 64.7279 L 391.9332 61.9355 L 390.7698 58.3158 L 387.6672 56.7645 L 387.2406 55.1615 L 391.4291 56.2992 L 394.6092 55.7303 L 396.8198 53.3 L 398.6426 53.6102 L 400.7369 55.6786 L 404.8478 57.6953 L 405.9725 56.506 L 407.5626 58.9881 L 406.7481 59.8154 L 410.161 60.4359 L 415.4354 65.8655 L 416.5601 68.2441 L 416.2498 69.6403 L 417.995 70.7779 L 417.0255 72.4844 L 419.43 75.4318 L 422.1835 76.2075 L 423.4634 75.7938 L 424.5493 77.8622 L 426.7987 78.3793 L 427.6906 80.1891 L 429.5134 80.9648 L 430.5993 79.9823 L 433.3141 81.6887 L 435.0205 84.3776 L 434.5551 85.0499 L 436.533 86.8597 L 436.8045 89.0315 L 435.7574 91.4102 L 440.1398 94.1508 L 442.2728 93.0132 L 443.669 94.3577 L 444.0956 98.0291 L 445.4142 100.6663 L 443.3975 103.924 L 444.2895 105.7855 L 446.0347 106.9749 L 446.6553 105.9407 L 448.6332 107.2851 L 449.2537 108.733 L 452.4726 107.8022 L 454.4505 108.7847 L 456.157 106.768 L 458.0185 107.9057 L 460.8109 108.4228 L 461.858 109.4052 L 467.2875 108.4745 L 468.9552 106.7163 L 471.7863 106.6646 L 474.695 103.4586 L 477.0607 102.2176 L 481.6758 104.2342 L 482.6066 106.4061 L 483.5761 105.0099 L 484.3518 107.8022 L 486.7951 106.8197 L 489.0057 107.0266 L 490.7897 105.165 L 493.6208 105.1133 L 494.2801 103.7171 L 496.9949 104.4411 L 499.0116 106.3026 L 500.8731 106.768 L 502.2305 109.6121 L 503.8206 108.5779 L 506.6129 110.5946 L 508.9399 110.4911 L 508.8623 112.1976 L 510.336 111.6288 L 511.7322 113.6972 L 513.904 114.6797 L 514.9899 113.904 L 515.9983 115.8173 L 500.0587 140.5863 L 504.4411 142.5513 L 506.8844 142.6547 L 508.2806 141.5171 L 509.8319 141.7756 L 512.0037 143.9992 L 512.6242 146.4295 L 515.5717 148.2911 L 517.821 151.9625 L 516.3861 153.6689 L 514.7184 152.0142 L 513.3223 152.0659 L 512.1976 153.7724 L 509.8706 151.8074 L 509.7931 149.739 L 507.0395 148.8599 L 503.4328 150.2044 L 502.3856 148.4462 L 500.5241 149.6873 L 497.7317 149.8424 L 497.499 151.1869 L 494.5904 154.6514 L 489.9365 154.0826 L 488.9281 155.1685 L 487.2217 154.4446 L 485.4765 156.2544 L 482.18 155.9959 L 481.7534 156.8749 L 478.4956 157.3403 L 476.0136 156.7715 L 473.3376 157.4438 L 471.2433 159.0468 L 469.1491 159.5639 L 467.8693 161.322 L 464.9994 163.1318 L 461.6253 164.166 L 461.4702 165.4588 L 456.3121 169.1819 L 455.6916 170.1644 L 453.5585 169.9576 L 449.6027 171.7157 L 450.1069 174.9217 L 448.3229 179.4722 L 448.5944 181.644 L 447.6248 185.1086 L 444.4447 189.0385 L 442.2341 193.589 L 443.5527 196.5365 L 444.561 201.966 L 443.0097 204.4998 L 439.0539 205.3789 L 431.8404 210.6016 L 429.9788 212.7734 L 428.8929 217.3238 L 431.1423 222.0294 L 426.8374 223.5807 L 424.9759 223.2188 L 425.8291 225.3906 L 424.9371 227.2004 L 423.0368 226.0111 L 419.3136 224.5632 L 414.8924 223.8393 L 412.7206 222.4431 L 411.1305 222.4948 L 410.7039 223.7359 L 411.7123 228.1829 L 411.9062 234.6467 L 411.2081 235.9911 L 408.726 237.2322 L 403.568 238.1112 L 397.4791 240.7484 L 393.4458 240.7484 L 392.5538 242.7134 L 390.3819 243.4891 L 390.0717 244.7818 L 392.0108 247.9878 L 391.8945 249.1772 L 388.2877 247.0053 L 387.0466 247.1088 L 381.7722 251.9178 L 379.4841 253.0037 L 379.9495 251.1938 Z" fill="#eee" fill-opacity="1" stroke="#000000" stroke-width="0.3636363557547579" paint-order="fill" stroke-opacity="1" stroke-dasharray="" stroke-linecap="butt" stroke-linejoin="miter" stroke-miterlimit="10" transform="matrix(1.100000023841858,0,0,1.100000023841858,-40.00001525878906,-26.649986267089844)" clip-path="none"/>
<path d="M 407.2135 402.4971 L 407.9892 398.4637 L 406.6706 396.2919 L 406.244 394.1718 L 404.5763 392.5688 L 403.4128 390.0867 L 401.4349 391.3277 L 400 391.276 L 400.1163 388.7939 L 398.2548 386.467 L 399.8449 383.2093 L 399.7285 380.5204 L 401.4349 379.2793 L 406.7093 378.6071 L 407.1747 377.6763 L 407.2523 373.7464 L 405.9337 370.3335 L 405.8949 367.8514 L 402.9087 364.3351 L 403.568 362.1633 L 405.7786 361.2843 L 407.0196 362.4736 L 409.269 363.0941 L 410.1222 361.9565 L 408.377 360.7672 L 410.7815 358.4402 L 413.8453 358.4402 L 414.7761 357.4577 L 414.5046 355.0274 L 415.7844 354.4068 L 417.4521 355.0791 L 416.2498 350.3218 L 417.103 348.5119 L 416.0947 344.7371 L 414.1944 341.7379 L 412.6431 341.5311 L 411.4408 339.9798 L 412.5655 336.722 L 415.2027 334.2917 L 416.1335 335.8947 L 419.9729 338.1699 L 422.1835 337.0323 L 424.782 337.3943 L 426.9926 341.1691 L 427.0701 342.6687 L 429.2032 345.5644 L 431.1035 346.7021 L 433.8958 355.6996 L 433.5468 356.3718 L 436.9597 359.1642 L 439.3642 362.577 L 441.1869 364.0766 L 440.4889 365.3693 L 435.7186 364.4903 L 433.8183 362.939 L 428.0785 359.2159 L 427.0701 362.939 L 428.1948 368.8339 L 429.6298 369.8164 L 430.5993 371.5745 L 429.3583 372.557 L 431.8404 377.4695 L 432.616 380.7789 L 433.8571 382.7439 L 434.0897 385.6913 L 433.7795 389.1042 L 434.6327 390.7589 L 434.1285 393.1893 L 432.9651 393.5513 L 434.1285 396.4987 L 436.0677 396.1367 L 437.6577 393.8615 L 439.6356 394.1718 L 444.561 392.879 L 445.0652 392.1551 L 449.1373 394.6372 L 449.37 396.1367 L 445.7633 396.7573 L 444.9101 398.7222 L 445.5306 399.9116 L 444.8713 403.8415 L 441.7687 407.6681 L 439.3254 407.3578 L 439.2478 409.8916 L 435.3696 409.1676 L 432.7711 410.3053 L 425.2861 411.236 L 423.7348 413.7181 L 421.3303 414.3386 L 420.9813 411.1326 L 418.2277 412.0117 L 416.7152 411.3912 L 415.6681 409.4262 L 414.3883 408.8574 L 412.9533 404.9791 L 407.5238 403.3761 L 407.2135 402.4971 Z" fill="#eee" fill-opacity="1" stroke="#000000" stroke-width="0.3636363557547579" paint-order="fill" stroke-opacity="1" stroke-dasharray="" stroke-linecap="butt" stroke-linejoin="miter" stroke-miterlimit="10" transform="matrix(1.100000023841858,0,0,1.100000023841858,-40.00001525878906,-26.649986267089844)" clip-path="none"/>
<path d="M 360.9073 342.617 L 361.1012 339.6695 L 359.6662 337.8597 L 355.5165 335.5844 L 355.1675 333.4643 L 353.7713 332.6887 L 353.8101 331.2408 L 353.1896 330.8271 L 351.9098 325.4493 L 351.871 323.4326 L 353.112 322.8121 L 354.5082 320.4851 L 355.439 321.4159 L 355.3226 323.0189 L 357.1066 324.6736 L 359.5887 324.6219 L 357.3781 326.8972 L 357.7271 329.3792 L 359.5887 329.3275 L 361.4502 327.5694 L 363.1954 329.6378 L 361.9544 331.3959 L 363.273 332.275 L 362.381 333.1024 L 364.3977 336.4118 L 363.5833 339.4627 L 361.9932 340.3935 L 360.9073 342.617 Z" fill="#eee" fill-opacity="1" stroke="#000000" stroke-width="0.3636363557547579" paint-order="fill" stroke-opacity="1" stroke-dasharray="" stroke-linecap="butt" stroke-linejoin="miter" stroke-miterlimit="10" transform="matrix(1.100000023841858,0,0,1.100000023841858,-40.00001525878906,-26.649986267089844)" clip-path="none"/>
<path d="M 415.2027 334.2917 L 412.5655 336.722 L 411.4408 339.9798 L 412.6431 341.5311 L 414.1944 341.7379 L 416.0947 344.7371 L 417.103 348.5119 L 416.2498 350.3218 L 417.4521 355.0791 L 415.7844 354.4068 L 414.5046 355.0274 L 414.7761 357.4577 L 413.8453 358.4402 L 410.7815 358.4402 L 408.377 360.7672 L 410.1222 361.9565 L 409.269 363.0941 L 407.0196 362.4736 L 405.7786 361.2843 L 403.568 362.1633 L 402.9087 364.3351 L 405.8949 367.8514 L 405.9337 370.3335 L 407.2523 373.7464 L 407.1747 377.6763 L 406.7093 378.6071 L 401.4349 379.2793 L 399.7285 380.5204 L 398.4487 379.2793 L 396.5483 378.9691 L 393.4458 376.3318 L 389.6063 374.8323 L 388.7143 371.3677 L 389.7614 369.6096 L 389.0246 367.4895 L 390.4595 364.8005 L 386.2322 363.4044 L 383.3623 362.9907 L 384.4094 359.9915 L 385.5341 359.009 L 385.3014 356.5269 L 386.9691 354.9239 L 387.0854 353.5795 L 388.0162 350.632 L 389.7614 349.2358 L 390.8473 346.7021 L 392.7477 343.5995 L 396.6259 340.1349 L 398.6038 339.5144 L 397.673 337.6011 L 398.6814 337.2909 L 400 335.2225 L 398.7589 331.8096 L 400.0388 330.31 L 402.0942 331.8096 L 406.2827 331.7579 L 408.6485 330.4651 L 412.3716 331.7579 L 415.2027 334.2917 Z" fill="#eee" fill-opacity="1" stroke="#000000" stroke-width="0.3636363557547579" paint-order="fill" stroke-opacity="1" stroke-dasharray="" stroke-linecap="butt" stroke-linejoin="miter" stroke-miterlimit="10" transform="matrix(1.100000023841858,0,0,1.100000023841858,-40.00001525878906,-26.649986267089844)" clip-path="none"/>
<path d="M 412.6431 304.1448 L 413.3799 307.4542 L 415.3966 308.8504 L 426.6823 306.3683 L 429.591 302.1798 L 432.4221 303.0072 L 433.9734 304.7136 L 435.5247 307.7645 L 435.0205 311.8496 L 436.8433 315.3659 L 434.2837 320.1749 L 431.1811 322.9672 L 435.292 324.6219 L 435.1369 327.9831 L 432.9263 331.2408 L 432.6548 334.1366 L 431.6465 335.9981 L 427.8846 337.2391 L 424.782 337.3943 L 422.1835 337.0323 L 419.9729 338.1699 L 416.1335 335.8947 L 415.2027 334.2917 L 412.3716 331.7579 L 408.6485 330.4651 L 406.2827 331.7579 L 402.0942 331.8096 L 400.0388 330.31 L 398.7589 331.8096 L 400 335.2225 L 398.6814 337.2909 L 397.673 337.6011 L 398.6038 339.5144 L 396.6259 340.1349 L 392.7477 343.5995 L 390.8473 346.7021 L 388.5979 345.2025 L 389.296 340.4452 L 386.814 334.9122 L 387.2018 334.0848 L 385.8832 332.637 L 381.3844 330.5169 L 378.5921 331.1374 L 377.2347 328.5519 L 375.8385 327.466 L 374.1709 324.6736 L 373.8994 321.3642 L 372.193 321.1574 L 370.3702 319.2441 L 369.2455 315.9347 L 368.1596 314.8488 L 367.8493 309.8846 L 372.5808 309.5226 L 372.6971 305.3858 L 376.0712 305.3858 L 378.0879 304.1448 L 379.0575 305.0239 L 384.4482 304.9204 L 391.4291 302.8003 L 393.6397 302.8003 L 398.7202 301.4042 L 400.9695 300.2148 L 403.568 301.5076 L 406.4767 303.576 L 408.6485 304.1965 L 412.6431 304.1448 Z" fill="#eee" fill-opacity="1" stroke="#000000" stroke-width="0.3636363557547579" paint-order="fill" stroke-opacity="1" stroke-dasharray="" stroke-linecap="butt" stroke-linejoin="miter" stroke-miterlimit="10" transform="matrix(1.100000023841858,0,0,1.100000023841858,-40.00001525878906,-26.649986267089844)" clip-path="none"/>
<path d="M 367.8493 309.8846 L 368.1596 314.8488 L 369.2455 315.9347 L 370.3702 319.2441 L 372.193 321.1574 L 373.8994 321.3642 L 374.1709 324.6736 L 375.8385 327.466 L 377.2347 328.5519 L 378.5921 331.1374 L 381.3844 330.5169 L 385.8832 332.637 L 387.2018 334.0848 L 386.814 334.9122 L 389.296 340.4452 L 388.5979 345.2025 L 390.8473 346.7021 L 389.7614 349.2358 L 388.0162 350.632 L 387.0854 353.5795 L 385.5729 354.3551 L 381.9274 354.7171 L 380.1046 353.9415 L 378.9411 355.5962 L 375.7222 358.2851 L 373.3177 361.4394 L 368.0433 354.8205 L 367.3064 350.9423 L 364.7467 348.2017 L 363.5833 345.1508 L 360.9073 342.617 L 361.9932 340.3935 L 363.5833 339.4627 L 364.3977 336.4118 L 362.381 333.1024 L 363.273 332.275 L 361.9544 331.3959 L 363.1954 329.6378 L 361.4502 327.5694 L 359.5887 329.3275 L 357.7271 329.3792 L 357.3781 326.8972 L 359.5887 324.6219 L 357.1066 324.6736 L 355.3226 323.0189 L 355.439 321.4159 L 354.5082 320.4851 L 353.112 322.8121 L 351.871 323.4326 L 349.8931 321.0022 L 349.0786 319.089 L 341.6712 314.4351 L 341.8263 312.6252 L 342.8347 311.4876 L 341.3222 308.023 L 341.0895 306.0064 L 339.2279 303.4209 L 338.9564 302.1798 L 336.0865 298.5084 L 338.0644 296.5434 L 338.4135 293.1823 L 340.3526 292.9755 L 341.0119 293.9579 L 339.3442 296.7503 L 341.0895 296.9054 L 342.7571 298.2499 L 342.951 301.7661 L 344.735 301.8179 L 346.9844 300.8354 L 347.76 299.3358 L 351.7546 296.44 L 352.8405 293.3374 L 357.7659 291.0622 L 358.464 292.4584 L 359.8602 292.6135 L 360.4807 294.1131 L 361.9156 294.6819 L 364.2038 300.1631 L 364.4365 301.611 L 365.949 303.6277 L 365.9878 306.9371 L 367.8493 309.8846 Z" fill="#eee" fill-opacity="1" stroke="#000000" stroke-width="0.3636363557547579" paint-order="fill" stroke-opacity="1" stroke-dasharray="" stroke-linecap="butt" stroke-linejoin="miter" stroke-miterlimit="10" transform="matrix(1.100000023841858,0,0,1.100000023841858,-40.00001525878906,-26.649986267089844)" clip-path="none"/>
<path d="M 294.473 218.9269 L 294.0851 217.6858 L 288.9271 212.5148 L 288.1514 210.2913 L 284.5834 207.137 L 280.4725 204.7066 L 272.7936 200.8801 L 276.0125 196.5365 L 276.8657 194.4163 L 280.201 190.6932 L 287.2982 188.5731 L 288.3066 187.8492 L 288.3841 181.4889 L 291.4092 183.8675 L 292.8829 186.0393 L 292.7665 188.418 L 294.6669 189.0902 L 295.2874 190.2278 L 298.0022 190.3313 L 299.7862 191.624 L 301.8028 192.2445 L 303.0439 191.4689 L 305.0994 192.5031 L 303.5481 194.9334 L 304.3237 196.3813 L 303.4317 198.3463 L 300.0576 199.6391 L 299.5535 200.8284 L 299.9801 203.9827 L 301.7253 205.0169 L 302.5397 207.0853 L 306.4567 208.5332 L 306.4567 209.6708 L 302.9275 212.7217 L 302.307 215.3589 L 298.8554 214.3764 L 294.473 218.9269 Z" fill="#eee" fill-opacity="1" stroke="#000000" stroke-width="0.3636363557547579" paint-order="fill" stroke-opacity="1" stroke-dasharray="" stroke-linecap="butt" stroke-linejoin="miter" stroke-miterlimit="10" transform="matrix(1.100000023841858,0,0,1.100000023841858,-40.00001525878906,-26.649986267089844)" clip-path="none"/>
<path d="M 262.4775 147.5672 L 264.0287 144.9817 L 266.8987 142.6547 L 267.2477 141.1551 L 269.1092 138.8799 L 272.7548 136.6564 L 274.5 134.0709 L 278.3783 133.1401 L 278.9988 131.4337 L 280.744 132.2093 L 280.5889 133.6055 L 281.6748 136.0358 L 281.7911 140.1726 L 283.1097 142.7064 L 279.8908 145.6539 L 277.525 145.1368 L 275.8186 145.5505 L 275.1205 147.1018 L 271.0484 150.5146 L 268.0621 149.4804 L 265.5413 149.5321 L 262.4775 147.5672 Z" fill="#eee" fill-opacity="1" stroke="#000000" stroke-width="0.3636363557547579" paint-order="fill" stroke-opacity="1" stroke-dasharray="" stroke-linecap="butt" stroke-linejoin="miter" stroke-miterlimit="10" transform="matrix(1.100000023841858,0,0,1.100000023841858,-40.00001525878906,-26.649986267089844)" clip-path="none"/>
<path d="M 449.1373 394.6372 L 445.0652 392.1551 L 444.561 392.879 L 439.6356 394.1718 L 437.6577 393.8615 L 436.0677 396.1367 L 434.1285 396.4987 L 432.9651 393.5513 L 434.1285 393.1893 L 434.6327 390.7589 L 433.7795 389.1042 L 434.0897 385.6913 L 433.8571 382.7439 L 432.616 380.7789 L 431.8404 377.4695 L 429.3583 372.557 L 430.5993 371.5745 L 429.6298 369.8164 L 428.1948 368.8339 L 427.0701 362.939 L 428.0785 359.2159 L 433.8183 362.939 L 435.7186 364.4903 L 440.4889 365.3693 L 441.1869 364.0766 L 443.9405 365.0074 L 446.9655 363.6112 L 450.5335 364.542 L 454.9547 367.5412 L 458.8717 368.4202 L 460.074 370.2301 L 462.3621 370.7472 L 464.7279 372.8673 L 466.5119 376.4353 L 466.4731 380.4686 L 465.775 382.899 L 461.9743 387.5012 L 459.7637 388.1217 L 457.4756 389.7764 L 456.8938 390.914 L 457.2429 393.3961 L 455.3425 393.8615 L 451.0765 392.9824 L 449.1373 394.6372 Z" fill="#eee" fill-opacity="1" stroke="#000000" stroke-width="0.3636363557547579" paint-order="fill" stroke-opacity="1" stroke-dasharray="" stroke-linecap="butt" stroke-linejoin="miter" stroke-miterlimit="10" transform="matrix(1.100000023841858,0,0,1.100000023841858,-40.00001525878906,-26.649986267089844)" clip-path="none"/>
<path d="M 449.1373 394.6372 L 451.0765 392.9824 L 455.3425 393.8615 L 457.2429 393.3961 L 457.2429 394.8957 L 458.6003 396.7056 L 460.5394 397.4295 L 464.2237 396.447 L 466.4731 398.3086 L 467.4426 396.3436 L 467.5978 393.4478 L 468.7613 394.2235 L 470.7392 397.5846 L 472.2517 398.1017 L 471.1658 399.8082 L 471.0106 402.2385 L 475.3155 403.9449 L 478.7671 403.0659 L 478.8447 401.8765 L 483.7313 404.1001 L 484.9723 403.221 L 486.3297 404.3586 L 486.1358 406.427 L 489.4323 409.4262 L 489.7426 414.804 L 491.9919 417.4929 L 491.2551 419.975 L 493.2718 422.8708 L 493.0778 424.7323 L 492.341 431.0927 L 490.7509 432.7474 L 490.1692 435.85 L 486.2909 435.7983 L 484.5069 436.7807 L 482.529 439.5731 L 482.529 441.8483 L 479.7755 443.6582 L 479.2713 444.7958 L 480.1245 447.4847 L 481.7922 449.036 L 479.4264 454.3621 L 478.1854 455.2929 L 474.8501 453.2245 L 471.2433 452.1903 L 468.1795 449.398 L 464.6503 448.1569 L 462.75 445.6231 L 460.6557 444.7958 L 459.182 441.9517 L 456.4284 440.2453 L 454.2178 439.5214 L 451.9297 439.5214 L 449.9518 438.7457 L 447.6248 436.9359 L 443.8629 435.488 L 440.9542 433.4196 L 438.6661 433.161 L 438.2007 431.8683 L 435.9513 430.7307 L 429.7849 428.9725 L 426.6435 427.2144 L 422.455 424.0601 L 422.1448 422.8708 L 413.4187 418.9925 L 412.9533 417.3378 L 404.46 413.563 L 403.9946 412.8908 L 399.4182 410.5638 L 401.9779 405.9616 L 407.2135 402.4971 L 407.5238 403.3761 L 412.9533 404.9791 L 414.3883 408.8574 L 415.6681 409.4262 L 416.7152 411.3912 L 418.2277 412.0117 L 420.9813 411.1326 L 421.3303 414.3386 L 423.7348 413.7181 L 425.2861 411.236 L 432.7711 410.3053 L 435.3696 409.1676 L 439.2478 409.8916 L 439.3254 407.3578 L 441.7687 407.6681 L 444.8713 403.8415 L 445.5306 399.9116 L 444.9101 398.7222 L 445.7633 396.7573 L 449.37 396.1367 L 449.1373 394.6372 Z" fill="#eee" fill-opacity="1" stroke="#000000" stroke-width="0.3636363557547579" paint-order="fill" stroke-opacity="1" stroke-dasharray="" stroke-linecap="butt" stroke-linejoin="miter" stroke-miterlimit="10" transform="matrix(1.100000023841858,0,0,1.100000023841858,-40.00001525878906,-26.649986267089844)" clip-path="none"/>
<path d="M 536.902 356.9406 L 537.0183 362.7838 L 536.3203 368.989 L 535.3895 370.954 L 533.6443 371.678 L 535.5058 373.7464 L 536.0876 378.8656 L 537.5613 380.1584 L 538.5309 383.261 L 538.143 384.5537 L 535.3119 385.226 L 535.661 388.3803 L 531.6664 391.1209 L 531.4725 392.879 L 529.7272 393.1893 L 529.1455 396.8607 L 527.0513 397.6363 L 526.2756 401.7731 L 528.4474 405.0309 L 531.5112 408.2369 L 530.1151 408.8574 L 528.0596 411.236 L 526.3532 414.7523 L 524.8019 414.1318 L 524.1038 412.5805 L 521.7768 410.7189 L 520.3419 410.5121 L 519.0233 408.1334 L 518.8294 409.1159 L 514.8736 409.5813 L 516.6963 410.3053 L 513.8264 410.9258 L 513.4774 411.8049 L 516.3473 417.2861 L 516.6963 419.3028 L 513.5938 415.4763 L 513.7101 416.7173 L 512.5078 418.734 L 511.3832 418.6306 L 511.7322 422.1468 L 514.2531 422.7674 L 514.6021 423.8533 L 516.3861 423.6981 L 514.796 422.3537 L 516.3473 420.8024 L 517.2781 423.181 L 518.5579 423.1293 L 518.9845 424.9909 L 524.5304 426.1802 L 524.7631 427.9901 L 522.7076 430.1102 L 524.6467 430.2136 L 527.4779 432.1786 L 530.6192 432.0751 L 532.6359 431.0927 L 534.8853 431.4029 L 534.0321 432.5922 L 532.1705 432.3337 L 533.1789 433.4713 L 532.9462 435.7983 L 531.7052 437.7115 L 532.9462 439.056 L 533.5279 441.021 L 532.8686 441.8483 L 529.3782 443.3996 L 528.6026 445.106 L 524.3753 449.6048 L 523.8711 451.2595 L 522.0483 451.7766 L 519.4887 453.4313 L 518.4803 455.7583 L 516.7739 455.7583 L 510.8014 451.9835 L 507.4273 445.6749 L 507.6988 443.8133 L 510.8402 441.9517 L 505.178 436.4705 L 503.9369 433.0576 L 504.4411 431.0927 L 503.0061 428.9725 L 502.3468 426.3871 L 499.3218 425.4046 L 496.6458 426.4388 L 493.0778 424.7323 L 493.2718 422.8708 L 491.2551 419.975 L 491.9919 417.4929 L 489.7426 414.804 L 489.4323 409.4262 L 490.3631 408.9091 L 490.6733 406.5304 L 489.9365 403.9449 L 489.9365 401.4112 L 490.6345 400.1184 L 490.4019 396.2402 L 489.0832 395.9299 L 487.6871 394.1718 L 490.5958 391.8965 L 491.0224 388.6905 L 493.0391 387.9666 L 494.4352 383.7264 L 495.017 380.6755 L 494.125 378.7105 L 494.9394 374.3669 L 498.0032 373.5395 L 500.6404 367.8514 L 504.1696 363.7146 L 505.1392 361.9565 L 505.0228 359.371 L 505.7597 355.9581 L 506.5353 355.7513 L 521.5054 363.7146 L 522.4749 363.7663 L 536.902 356.9406 Z" fill="#eee" fill-opacity="1" stroke="#000000" stroke-width="0.3636363557547579" paint-order="fill" stroke-opacity="1" stroke-dasharray="" stroke-linecap="butt" stroke-linejoin="miter" stroke-miterlimit="10" transform="matrix(1.100000023841858,0,0,1.100000023841858,-40.00001525878906,-26.649986267089844)" clip-path="none"/>
<path d="M 484.8172 466.5657 L 482.0248 464.4456 L 480.2796 463.9285 L 480.8614 462.6874 L 480.0857 457.2579 L 478.1854 455.2929 L 479.4264 454.3621 L 481.7922 449.036 L 480.1245 447.4847 L 479.2713 444.7958 L 479.7755 443.6582 L 482.529 441.8483 L 482.529 439.5731 L 484.5069 436.7807 L 486.2909 435.7983 L 490.1692 435.85 L 490.7509 432.7474 L 492.341 431.0927 L 493.0778 424.7323 L 496.6458 426.4388 L 499.3218 425.4046 L 502.3468 426.3871 L 503.0061 428.9725 L 504.4411 431.0927 L 503.9369 433.0576 L 505.178 436.4705 L 510.8402 441.9517 L 507.6988 443.8133 L 507.4273 445.6749 L 506.3027 447.2261 L 505.3719 447.0193 L 504.2472 444.7958 L 502.6959 444.2787 L 500.9895 445.7783 L 500.4077 447.8467 L 500.6792 449.8634 L 497.9256 453.1211 L 495.6375 454.1553 L 493.582 457.051 L 492.9615 458.9643 L 490.2855 462.7391 L 485.9419 464.9109 L 484.8172 466.5657 Z" fill="#eee" fill-opacity="1" stroke="#000000" stroke-width="0.3636363557547579" paint-order="fill" stroke-opacity="1" stroke-dasharray="" stroke-linecap="butt" stroke-linejoin="miter" stroke-miterlimit="10" transform="matrix(1.100000023841858,0,0,1.100000023841858,-40.00001525878906,-26.649986267089844)" clip-path="none"/>
<path d="M 507.4273 445.6749 L 510.8014 451.9835 L 516.7739 455.7583 L 518.4803 455.7583 L 519.9541 456.0685 L 521.5442 457.775 L 521.7381 460.981 L 517.7823 464.3421 L 514.796 464.2904 L 513.8652 466.0486 L 515.339 471.8401 L 513.3998 475.5632 L 510.9953 477.9936 L 507.3498 479.4931 L 501.61 479.7 L 498.042 476.9594 L 495.4048 475.4081 L 492.341 472.4089 L 490.9448 471.6332 L 490.4794 470.2888 L 486.7175 468.3755 L 484.8172 466.5657 L 485.9419 464.9109 L 490.2855 462.7391 L 492.9615 458.9643 L 493.582 457.051 L 495.6375 454.1553 L 497.9256 453.1211 L 500.6792 449.8634 L 500.4077 447.8467 L 500.9895 445.7783 L 502.6959 444.2787 L 504.2472 444.7958 L 505.3719 447.0193 L 506.3027 447.2261 L 507.4273 445.6749 Z" fill="#eee" fill-opacity="1" stroke="#000000" stroke-width="0.3636363557547579" paint-order="fill" stroke-opacity="1" stroke-dasharray="" stroke-linecap="butt" stroke-linejoin="miter" stroke-miterlimit="10" transform="matrix(1.100000023841858,0,0,1.100000023841858,-40.00001525878906,-26.649986267089844)" clip-path="none"/>
<path d="M 336.0865 298.5084 L 332.2858 292.6135 L 331.1612 289.2523 L 329.765 287.8562 L 329.4935 285.5292 L 328.1749 283.4608 L 328.2913 279.7894 L 325.0723 275.6526 L 325.0723 274.3082 L 323.7149 271.1539 L 323.9864 269.8094 L 321.4268 267.6376 L 322.0861 265.8277 L 320.6899 265.6726 L 320.845 267.0688 L 319.4876 265.5175 L 320.4572 263.8628 L 318.7896 262.7252 L 318.5956 260.5533 L 319.3325 260.0879 L 319.7591 257.3473 L 321.1165 255.7443 L 327.5544 253.4174 L 327.9422 250.7285 L 329.6486 248.143 L 330.7733 245.1438 L 334.2637 242.0929 L 335.6211 239.6108 L 337.6378 239.8694 L 341.3222 238.3181 L 342.2917 241.6275 L 345.084 243.851 L 348.1479 248.143 L 348.7684 250.4182 L 349.5052 253.9345 L 351.2505 255.6409 L 351.2505 256.8302 L 353.0344 258.8986 L 354.4694 259.4157 L 356.2146 261.5358 L 361.14 264.3799 L 362.032 265.9829 L 359.356 268.7752 L 357.0678 274.153 L 356.7576 276.118 L 354.547 279.5826 L 356.2146 283.2023 L 356.6412 286.0463 L 358.3864 287.3391 L 357.7659 291.0622 L 352.8405 293.3374 L 351.7546 296.44 L 347.76 299.3358 L 346.9844 300.8354 L 344.735 301.8179 L 342.951 301.7661 L 342.7571 298.2499 L 341.0895 296.9054 L 339.3442 296.7503 L 341.0119 293.9579 L 340.3526 292.9755 L 338.4135 293.1823 L 338.0644 296.5434 L 336.0865 298.5084 Z" fill="#eee" fill-opacity="1" stroke="#000000" stroke-width="0.3636363557547579" paint-order="fill" stroke-opacity="1" stroke-dasharray="" stroke-linecap="butt" stroke-linejoin="miter" stroke-miterlimit="10" transform="matrix(1.100000023841858,0,0,1.100000023841858,-40.00001525878906,-26.649986267089844)" clip-path="none"/>
<path d="M 302.307 215.3589 L 302.9275 212.7217 L 306.4567 209.6708 L 306.4567 208.5332 L 302.5397 207.0853 L 301.7253 205.0169 L 299.9801 203.9827 L 299.5535 200.8284 L 300.0576 199.6391 L 303.4317 198.3463 L 304.3237 196.3813 L 303.5481 194.9334 L 305.0994 192.5031 L 303.0439 191.4689 L 301.8028 192.2445 L 299.7862 191.624 L 301.9968 189.7107 L 300.4842 185.574 L 301.1048 180.2478 L 302.6173 180.2995 L 302.5009 176.6281 L 301.6865 175.5939 L 301.2987 172.2845 L 303.7032 169.699 L 304.6727 167.8892 L 307.6202 168.1994 L 308.551 168.8716 L 309.792 167.734 L 310.4513 165.7173 L 312.3129 164.9934 L 311.6536 162.7699 L 313.36 160.5464 L 316.6953 158.9951 L 317.8976 161.4771 L 318.5956 164.4763 L 319.5652 166.131 L 319.5264 168.5614 L 318.0915 171.9742 L 319.0998 177.1969 L 319.0998 180.2478 L 316.5014 184.1778 L 315.3379 187.9526 L 318.8671 193.1753 L 322.7841 195.2437 L 325.1111 199.8976 L 329.1057 202.4314 L 330.3855 204.2929 L 332.5573 208.8951 L 332.6737 213.4973 L 333.3718 215.2037 L 334.6516 218.6166 L 336.1641 220.323 L 336.8622 223.6842 L 338.8013 225.8043 L 336.3192 225.9077 L 335.0782 226.735 L 334.7291 230.303 L 331.2775 231.0787 L 329.9977 230.5616 L 327.7871 232.5266 L 326.546 232.7851 L 326.3133 231.3372 L 323.9864 229.8894 L 322.0085 229.8376 L 319.8367 228.3381 L 317.3158 228.5966 L 315.5706 227.8727 L 311.7312 229.1137 L 310.4513 231.3889 L 308.9776 230.4065 L 308.9388 228.0278 L 308.1632 226.5282 L 305.8362 224.4081 L 302.307 223.4256 L 301.4926 222.7017 L 302.4621 220.6333 L 302.0743 218.8751 L 302.307 215.3589 Z" fill="#eee" fill-opacity="1" stroke="#000000" stroke-width="0.3636363557547579" paint-order="fill" stroke-opacity="1" stroke-dasharray="" stroke-linecap="butt" stroke-linejoin="miter" stroke-miterlimit="10" transform="matrix(1.100000023841858,0,0,1.100000023841858,-40.00001525878906,-26.649986267089844)" clip-path="none"/>
<path d="M 357.7659 291.0622 L 358.3864 287.3391 L 356.6412 286.0463 L 356.2146 283.2023 L 354.547 279.5826 L 356.7576 276.118 L 357.0678 274.153 L 359.356 268.7752 L 362.032 265.9829 L 361.14 264.3799 L 356.2146 261.5358 L 354.4694 259.4157 L 353.0344 258.8986 L 351.2505 256.8302 L 351.2505 255.6409 L 349.5052 253.9345 L 348.7684 250.4182 L 352.2976 250.4182 L 355.2838 249.5908 L 356.2534 252.0212 L 358.7355 252.0729 L 359.3948 250.9353 L 361.2951 250.5216 L 368.4699 251.9178 L 370.6029 250.7802 L 370.758 247.5224 L 371.4561 246.7985 L 374.2484 251.349 L 374.9465 254.193 L 377.0796 254.6067 L 378.2818 252.5383 L 379.9495 251.1938 L 379.4841 253.0037 L 381.1905 256.8819 L 381.5008 260.9153 L 383.4787 263.3457 L 383.9828 266.9137 L 386.8915 270.5851 L 388.947 270.1197 L 391.7005 267.7927 L 394.8807 266.5517 L 398.0609 261.2256 L 400.7756 257.4507 L 406.1664 253.3657 L 408.9975 252.4349 L 411.5959 252.7451 L 412.5267 253.7276 L 412.6043 255.6409 L 410.3937 257.4507 L 410.0834 260.5016 L 408.9199 262.8803 L 408.8812 266.3448 L 407.9892 269.2923 L 408.377 270.8953 L 412.1001 276.3249 L 406.9808 278.7552 L 401.9779 279.5826 L 398.565 279.2206 L 394.2214 281.3407 L 390.3432 282.013 L 387.5896 281.9095 L 384.9524 282.3749 L 383.4399 283.5125 L 382.7806 286.6151 L 384.0992 292.0447 L 380.1046 294.2682 L 378.0879 293.1823 L 373.7055 292.8203 L 371.8439 291.0105 L 367.2676 290.4417 L 365.4836 291.1139 L 364.0099 293.1823 L 361.9156 294.6819 L 360.4807 294.1131 L 359.8602 292.6135 L 358.464 292.4584 L 357.7659 291.0622 Z" fill="#eee" fill-opacity="1" stroke="#000000" stroke-width="0.3636363557547579" paint-order="fill" stroke-opacity="1" stroke-dasharray="" stroke-linecap="butt" stroke-linejoin="miter" stroke-miterlimit="10" transform="matrix(1.100000023841858,0,0,1.100000023841858,-40.00001525878906,-26.649986267089844)" clip-path="none"/>
<path d="M 353.7713 332.6887 L 352.4139 332.4818 L 353.1896 330.8271 L 353.8101 331.2408 L 353.7713 332.6887 Z" fill="#eee" fill-opacity="1" stroke="#000000" stroke-width="0.3636363557547579" paint-order="fill" stroke-opacity="1" stroke-dasharray="" stroke-linecap="butt" stroke-linejoin="miter" stroke-miterlimit="10" transform="matrix(1.100000023841858,0,0,1.100000023841858,-40.00001525878906,-26.649986267089844)" clip-path="none"/>
<path d="M 302.307 215.3589 L 302.0743 218.8751 L 302.4621 220.6333 L 301.4926 222.7017 L 302.307 223.4256 L 305.8362 224.4081 L 308.1632 226.5282 L 308.9388 228.0278 L 308.9776 230.4065 L 310.4513 231.3889 L 311.7312 229.1137 L 315.5706 227.8727 L 317.3158 228.5966 L 319.8367 228.3381 L 322.0085 229.8376 L 323.9864 229.8894 L 326.3133 231.3372 L 326.546 232.7851 L 327.7871 232.5266 L 329.9977 230.5616 L 331.2775 231.0787 L 334.7291 230.303 L 335.0782 226.735 L 336.3192 225.9077 L 338.8013 225.8043 L 336.8622 223.6842 L 336.1641 220.323 L 334.6516 218.6166 L 333.3718 215.2037 L 336.0477 214.5832 L 339.034 214.7383 L 340.4302 217.7375 L 341.8651 218.8234 L 341.6712 221.4606 L 342.4856 224.2013 L 345.7821 228.1312 L 345.3167 232.5783 L 346.9456 235.7326 L 346.868 237.9561 L 347.8764 239.6108 L 350.7851 239.7142 L 355.4777 241.2655 L 358.1149 243.7476 L 358.8518 249.9011 L 359.3948 250.9353 L 358.7355 252.0729 L 356.2534 252.0212 L 355.2838 249.5908 L 352.2976 250.4182 L 348.7684 250.4182 L 348.1479 248.143 L 345.084 243.851 L 342.2917 241.6275 L 341.3222 238.3181 L 337.6378 239.8694 L 335.6211 239.6108 L 334.2637 242.0929 L 330.7733 245.1438 L 329.6486 248.143 L 327.9422 250.7285 L 327.5544 253.4174 L 321.1165 255.7443 L 319.7591 257.3473 L 319.3325 260.0879 L 318.5956 260.5533 L 317.82 258.6918 L 315.9584 256.2097 L 316.4238 255.3823 L 316.036 252.3832 L 314.6398 250.5216 L 311.8863 248.3498 L 312.7395 247.0053 L 310.8004 243.3339 L 307.6202 240.3865 L 307.5814 239.7659 L 303.5868 236.9219 L 299.7474 231.7509 L 300.4455 230.7684 L 297.0326 225.9077 L 297.2265 224.1496 L 296.2957 221.3572 L 294.473 218.9269 L 298.8554 214.3764 L 302.307 215.3589 Z" fill="#eee" fill-opacity="1" stroke="#000000" stroke-width="0.3636363557547579" paint-order="fill" stroke-opacity="1" stroke-dasharray="" stroke-linecap="butt" stroke-linejoin="miter" stroke-miterlimit="10" transform="matrix(1.100000023841858,0,0,1.100000023841858,-40.00001525878906,-26.649986267089844)" clip-path="none"/>
<path d="M 361.9156 294.6819 L 364.0099 293.1823 L 365.4836 291.1139 L 367.2676 290.4417 L 371.8439 291.0105 L 373.7055 292.8203 L 378.0879 293.1823 L 380.1046 294.2682 L 384.0992 292.0447 L 382.7806 286.6151 L 383.4399 283.5125 L 384.9524 282.3749 L 387.5896 281.9095 L 390.3432 282.013 L 394.2214 281.3407 L 398.565 279.2206 L 401.9779 279.5826 L 406.9808 278.7552 L 412.1001 276.3249 L 414.2719 280.927 L 414.3495 283.4091 L 416.0947 287.701 L 415.862 291.7861 L 417.4133 296.0263 L 419.4688 297.0088 L 420.2444 298.5084 L 417.5684 299.8529 L 414.8149 302.5935 L 412.6431 304.1448 L 408.6485 304.1965 L 406.4767 303.576 L 403.568 301.5076 L 400.9695 300.2148 L 398.7202 301.4042 L 393.6397 302.8003 L 391.4291 302.8003 L 384.4482 304.9204 L 379.0575 305.0239 L 378.0879 304.1448 L 376.0712 305.3858 L 372.6971 305.3858 L 372.5808 309.5226 L 367.8493 309.8846 L 365.9878 306.9371 L 365.949 303.6277 L 364.4365 301.611 L 364.2038 300.1631 L 361.9156 294.6819 Z" fill="#eee" fill-opacity="1" stroke="#000000" stroke-width="0.3636363557547579" paint-order="fill" stroke-opacity="1" stroke-dasharray="" stroke-linecap="butt" stroke-linejoin="miter" stroke-miterlimit="10" transform="matrix(1.100000023841858,0,0,1.100000023841858,-40.00001525878906,-26.649986267089844)" clip-path="none"/>
<path d="M 304.6727 167.8892 L 303.7032 169.699 L 301.2987 172.2845 L 301.6865 175.5939 L 302.5009 176.6281 L 302.6173 180.2995 L 301.1048 180.2478 L 300.4842 185.574 L 301.9968 189.7107 L 299.7862 191.624 L 298.0022 190.3313 L 295.2874 190.2278 L 294.6669 189.0902 L 292.7665 188.418 L 292.8829 186.0393 L 291.4092 183.8675 L 288.3841 181.4889 L 288.3066 187.8492 L 287.2982 188.5731 L 280.201 190.6932 L 276.8657 194.4163 L 276.0125 196.5365 L 272.7936 200.8801 L 269.1092 199.122 L 267.6355 197.7258 L 261.8957 193.8992 L 260.7322 191.624 L 260.7322 189.5039 L 262.4387 187.2287 L 265.58 188.6765 L 267.2865 186.1945 L 267.4416 184.0227 L 265.6964 179.679 L 262.4387 176.3696 L 261.0425 175.9042 L 259.4912 173.7841 L 260.1117 170.9918 L 262.1284 170.7849 L 262.555 169.4405 L 258.8319 164.4763 L 256.1947 161.5288 L 256.9316 160.7015 L 256.3498 156.7715 L 257.4745 154.91 L 257.1255 153.1001 L 258.095 151.2386 L 262.4775 147.5672 L 265.5413 149.5321 L 268.0621 149.4804 L 271.0484 150.5146 L 275.1205 147.1018 L 276.1289 150.5146 L 278.9988 150.2044 L 275.7023 154.8065 L 277.5638 156.6681 L 281.4421 154.1343 L 282.2177 152.4796 L 283.7302 152.1176 L 287.3758 154.548 L 289.1598 154.8065 L 290.8274 156.6164 L 294.822 155.6856 L 298.3124 157.8057 L 297.847 159.8224 L 299.6698 164.2695 L 303.0439 167.734 L 304.6727 167.8892 Z" fill="#eee" fill-opacity="1" stroke="#000000" stroke-width="0.3636363557547579" paint-order="fill" stroke-opacity="1" stroke-dasharray="" stroke-linecap="butt" stroke-linejoin="miter" stroke-miterlimit="10" transform="matrix(1.100000023841858,0,0,1.100000023841858,-40.00001525878906,-26.649986267089844)" clip-path="none"/>
<path d="M -5 -5 L 5 -5 L 5 5 L -5 5 L -5 -5 Z" fill="none" fill-opacity="1" stroke="#ccc" stroke-width="0" paint-order="fill" stroke-opacity="1" stroke-dasharray="" stroke-linecap="butt" stroke-linejoin="miter" stroke-miterlimit="10" transform="matrix(1,0,0,1,795,266.5)" clip-path="none"/>
<path fill="rgba(255,255,255,0)" fill-opacity="0" stroke="#ccc" stroke-width="0" paint-order="fill" stroke-opacity="1" stroke-dasharray="" stroke-linecap="butt" stroke-linejoin="miter" stroke-miterlimit="10" transform="matrix(1,0,0,1,15,10)" clip-path="none"/><defs><filter id="f1" x="-100%" y="-100%" width="1000%" height="1000%"><feOffset result="offOut" in="SourceGraphic" dx="-2.8" dy="2.8"></feOffset><feColorMatrix result="matrixOut" in="offOut" type="matrix" values="0.2 0 0 0 0 0 0.2 0 0 0 0 0 0.2 0 0 0 0 0 1 0"></feColorMatrix><feGaussianBlur result="blurOut" in="matrixOut" stdDeviation="8"></feGaussianBlur><feBlend in="SourceGraphic" in2="blurOut" mode="normal"></feBlend></filter></defs>
<text x="643" y="519.33333333333" font-size="11">Created with paintmaps.com</text>
<text transform="matrix(1 0 0 1 379.1125 397.486)" style="font-family:'Tahoma'; font-size:11px;" class="maplabels1">Ica</text>
<text transform="matrix(1 0 0 1 454.8401 370.4499)" style="font-family:'Tahoma'; font-size:11px;" class="maplabels1">Cusco</text>
<text transform="matrix(1 0 0 1 433.0151 293.5183)" style="font-family:'Tahoma'; font-size:11px;" class="maplabels1">Ucayali</text>
<text transform="matrix(1 0 0 1 474.1584 339.3075)" style="font-family:'Tahoma'; font-size:11px;" class="maplabels1">Madre de Dios</text>
<text transform="matrix(0.6434 -0.7655 0.7655 0.6434 347.6558 235.4995)" style="font-family:'Tahoma'; font-size:11px;" class="maplabels1">San Martn</text>
<text transform="matrix(-5.009974e-02 -0.9987 0.9987 -5.009974e-02 326.2957 180.4729)" style="font-family:'Tahoma'; font-size:11px;" class="maplabels1">Amazonas</text>
<text transform="matrix(1 0 0 1 390.2307 138.9162)" style="font-family:'Tahoma'; font-size:11px;" class="maplabels1">Loreto</text>
<text transform="matrix(8.392109e-03 -1 1 8.392109e-03 422.2697 419.6812)" style="font-family:'Tahoma'; font-size:11px;" class="maplabels1">Ayacucho</text>
<text transform="matrix(0.8072 -0.5902 0.5902 0.8072 329.6948 354.7224)" style="enable-background:new    ;" class="maplabels1"><tspan x="0" y="0" style="font-family:'Tahoma'; font-size:6px;">Lima</tspan><tspan x="0" y="5" style="font-family:'Tahoma'; font-size:6px;">Province</tspan></text>
<text transform="matrix(0.294 -0.9558 0.9558 0.294 398.0805 385.0963)" style="font-family:'Tahoma'; font-size:8px;" class="maplabels1">Huancavelica</text>
<text transform="matrix(1 0 0 1 387.5148 329.1543)" style="font-family:'Tahoma'; font-size:11px;" class="maplabels1">Junn</text>
<text transform="matrix(1 0 0 1 337.7287 314.2231)" style="font-family:'Tahoma'; font-size:10px;" class="maplabels1">Lima</text>
<text transform="matrix(1 0 0 1 215.1807 210.0742)" style="font-family:'Tahoma'; font-size:11px;" class="maplabels1">Lambayeque</text>
<text transform="matrix(1 0 0 1 242.1808 117.9272)" style="font-family:'Tahoma'; font-size:11px;" class="maplabels1">Tumbes</text>
<text transform="matrix(1 0 0 1 435.5862 391.922)" style="font-family:'Tahoma'; font-size:9px;" class="maplabels1">Apurmac</text>
<text transform="matrix(1 0 0 1 425.6111 439.9015)" style="font-family:'Tahoma'; font-size:11px;" class="maplabels1">Arequipa</text>
<text transform="matrix(1 0 0 1 512.5989 405.6303)" style="font-family:'Tahoma'; font-size:11px;" class="maplabels1">Puno</text>
<text transform="matrix(1 0 0 1 336.2599 338.0566)" style="font-family:'Tahoma'; font-size:4px;" class="maplabels1">Callao</text>
<text transform="matrix(0.4033 -0.9151 0.9151 0.4033 496.4567 483.2171)" style="font-family:'Tahoma'; font-size:9px;" class="maplabels1">Moquegua</text>
<text transform="matrix(1 0 0 1 499.5759 486.5727)" style="font-family:'Tahoma'; font-size:10px;" class="maplabels1">Tacna</text>
<text transform="matrix(1 0 0 1 319.6273 270.4248)" style="font-family:'Tahoma'; font-size:11px;" class="maplabels1">Ancash</text>
<text transform="matrix(-4.380889e-02 -0.999 0.999 -4.380889e-02 306.8713 218.0375)" style="font-family:'Tahoma'; font-size:11px;" class="maplabels1">Cajamarca</text>
<text transform="matrix(1 0 0 1 358.107 277.3076)" style="font-family:'Tahoma'; font-size:11px;" class="maplabels1">Hunuco</text>
<text transform="matrix(1 0 0 1 242.1809 241.408)" style="font-family:'Tahoma'; font-size:11px;" class="maplabels1">La Libertad</text>
<text transform="matrix(1 0 0 1 387.5148 300.0502)" style="font-family:'Tahoma'; font-size:11px;" class="maplabels1">Pasco</text>
<text transform="matrix(1 0 0 1 254.0298 164.7401)" style="font-family:'Tahoma'; font-size:11px;" class="maplabels1">Piura</text>
</svg>